<mxfile host="app.diagrams.net" modified="2023-02-13T17:36:30.465Z" agent="5.0 (Windows NT 10.0; Win64; x64) AppleWebKit/537.36 (KHTML, like Gecko) Chrome/109.0.0.0 Safari/537.36" etag="jUHLgCKwzjUVJv7srJSz" version="20.8.19" type="github">
  <diagram name="Page-1" id="l0-qD_RP9koMezkaeGI8">
    <mxGraphModel dx="1434" dy="796" grid="1" gridSize="10" guides="1" tooltips="1" connect="1" arrows="1" fold="1" page="1" pageScale="1" pageWidth="850" pageHeight="1100" math="0" shadow="0">
      <root>
        <mxCell id="0" />
        <mxCell id="1" parent="0" />
        <mxCell id="zjVueI3nGS8uGwPDVi_S-1" value="" style="rounded=0;whiteSpace=wrap;html=1;dashed=1;" vertex="1" parent="1">
          <mxGeometry x="40" y="40" width="770" height="180" as="geometry" />
        </mxCell>
        <mxCell id="zjVueI3nGS8uGwPDVi_S-5" value="Request&amp;nbsp;&lt;br&gt;Encounter" style="edgeStyle=orthogonalEdgeStyle;rounded=0;orthogonalLoop=1;jettySize=auto;html=1;" edge="1" parent="1" source="zjVueI3nGS8uGwPDVi_S-2" target="zjVueI3nGS8uGwPDVi_S-4">
          <mxGeometry y="35" relative="1" as="geometry">
            <Array as="points">
              <mxPoint x="425" y="280" />
              <mxPoint x="425" y="280" />
            </Array>
            <mxPoint as="offset" />
          </mxGeometry>
        </mxCell>
        <mxCell id="zjVueI3nGS8uGwPDVi_S-2" value="" style="outlineConnect=0;dashed=0;verticalLabelPosition=bottom;verticalAlign=top;align=center;html=1;shape=mxgraph.aws3.api_gateway;fillColor=#D9A741;gradientColor=none;" vertex="1" parent="1">
          <mxGeometry x="402" y="200" width="46.75" height="50" as="geometry" />
        </mxCell>
        <mxCell id="zjVueI3nGS8uGwPDVi_S-3" value="" style="rounded=0;whiteSpace=wrap;html=1;dashed=1;" vertex="1" parent="1">
          <mxGeometry x="40" y="370" width="770.38" height="360" as="geometry" />
        </mxCell>
        <mxCell id="zjVueI3nGS8uGwPDVi_S-29" style="edgeStyle=orthogonalEdgeStyle;rounded=0;orthogonalLoop=1;jettySize=auto;html=1;" edge="1" parent="1" source="zjVueI3nGS8uGwPDVi_S-4" target="zjVueI3nGS8uGwPDVi_S-21">
          <mxGeometry relative="1" as="geometry" />
        </mxCell>
        <mxCell id="zjVueI3nGS8uGwPDVi_S-4" value="" style="outlineConnect=0;dashed=0;verticalLabelPosition=bottom;verticalAlign=top;align=center;html=1;shape=mxgraph.aws3.api_gateway;fillColor=#D9A741;gradientColor=none;" vertex="1" parent="1">
          <mxGeometry x="402" y="330" width="46.75" height="50" as="geometry" />
        </mxCell>
        <mxCell id="zjVueI3nGS8uGwPDVi_S-6" value="&amp;nbsp; &amp;nbsp; &amp;nbsp; &amp;nbsp; &amp;nbsp; &amp;nbsp; &amp;nbsp; &amp;nbsp; &amp;nbsp; &amp;nbsp; &amp;nbsp; &amp;nbsp; &amp;nbsp; *** Any FHIR Compliant EHR&#39;s" style="rounded=0;whiteSpace=wrap;html=1;dashed=1;" vertex="1" parent="1">
          <mxGeometry x="40" y="808" width="360" height="82" as="geometry" />
        </mxCell>
        <mxCell id="zjVueI3nGS8uGwPDVi_S-56" value="SFTP" style="edgeStyle=orthogonalEdgeStyle;rounded=0;orthogonalLoop=1;jettySize=auto;html=1;" edge="1" parent="1" source="zjVueI3nGS8uGwPDVi_S-8" target="zjVueI3nGS8uGwPDVi_S-50">
          <mxGeometry relative="1" as="geometry" />
        </mxCell>
        <mxCell id="zjVueI3nGS8uGwPDVi_S-8" value="&amp;nbsp; &amp;nbsp; &amp;nbsp; &amp;nbsp; &amp;nbsp; &amp;nbsp; &amp;nbsp; &amp;nbsp; &amp;nbsp; &amp;nbsp; &amp;nbsp; &amp;nbsp;Client/Medical Groups" style="rounded=0;whiteSpace=wrap;html=1;dashed=1;" vertex="1" parent="1">
          <mxGeometry x="450" y="808" width="360.38" height="82" as="geometry" />
        </mxCell>
        <mxCell id="zjVueI3nGS8uGwPDVi_S-9" value="" style="shape=image;verticalLabelPosition=bottom;labelBackgroundColor=default;verticalAlign=top;aspect=fixed;imageAspect=0;image=https://logodix.com/logo/30056.png;" vertex="1" parent="1">
          <mxGeometry x="49.99999999999999" y="828" width="106" height="46.3" as="geometry" />
        </mxCell>
        <mxCell id="zjVueI3nGS8uGwPDVi_S-16" style="edgeStyle=orthogonalEdgeStyle;rounded=0;orthogonalLoop=1;jettySize=auto;html=1;entryX=0.5;entryY=1;entryDx=0;entryDy=0;entryPerimeter=0;" edge="1" parent="1" source="zjVueI3nGS8uGwPDVi_S-11" target="zjVueI3nGS8uGwPDVi_S-15">
          <mxGeometry relative="1" as="geometry" />
        </mxCell>
        <mxCell id="zjVueI3nGS8uGwPDVi_S-19" style="edgeStyle=orthogonalEdgeStyle;rounded=0;orthogonalLoop=1;jettySize=auto;html=1;entryX=0.233;entryY=0;entryDx=0;entryDy=0;entryPerimeter=0;" edge="1" parent="1" source="zjVueI3nGS8uGwPDVi_S-11" target="zjVueI3nGS8uGwPDVi_S-6">
          <mxGeometry relative="1" as="geometry" />
        </mxCell>
        <mxCell id="zjVueI3nGS8uGwPDVi_S-11" value="" style="aspect=fixed;html=1;points=[];align=center;image;fontSize=12;image=img/lib/azure2/compute/Function_Apps.svg;dashed=1;horizontal=0;" vertex="1" parent="1">
          <mxGeometry x="90" y="591" width="68" height="60" as="geometry" />
        </mxCell>
        <mxCell id="zjVueI3nGS8uGwPDVi_S-15" value="" style="outlineConnect=0;dashed=0;verticalLabelPosition=bottom;verticalAlign=top;align=center;html=1;shape=mxgraph.aws3.cache_node;fillColor=#2E73B8;gradientColor=none;" vertex="1" parent="1">
          <mxGeometry x="94" y="450" width="60" height="63" as="geometry" />
        </mxCell>
        <mxCell id="zjVueI3nGS8uGwPDVi_S-17" value="Token Cache" style="text;html=1;strokeColor=none;fillColor=none;align=center;verticalAlign=middle;whiteSpace=wrap;rounded=0;" vertex="1" parent="1">
          <mxGeometry x="94" y="410" width="60" height="30" as="geometry" />
        </mxCell>
        <mxCell id="zjVueI3nGS8uGwPDVi_S-20" value="Get New&amp;nbsp;&lt;br&gt;Token" style="text;html=1;strokeColor=none;fillColor=none;align=center;verticalAlign=middle;whiteSpace=wrap;rounded=0;" vertex="1" parent="1">
          <mxGeometry x="69.62" y="730" width="60" height="30" as="geometry" />
        </mxCell>
        <mxCell id="zjVueI3nGS8uGwPDVi_S-23" style="edgeStyle=orthogonalEdgeStyle;rounded=0;orthogonalLoop=1;jettySize=auto;html=1;" edge="1" parent="1" source="zjVueI3nGS8uGwPDVi_S-21" target="zjVueI3nGS8uGwPDVi_S-22">
          <mxGeometry relative="1" as="geometry" />
        </mxCell>
        <mxCell id="zjVueI3nGS8uGwPDVi_S-26" style="edgeStyle=orthogonalEdgeStyle;rounded=0;orthogonalLoop=1;jettySize=auto;html=1;" edge="1" parent="1" source="zjVueI3nGS8uGwPDVi_S-21" target="zjVueI3nGS8uGwPDVi_S-24">
          <mxGeometry relative="1" as="geometry" />
        </mxCell>
        <mxCell id="zjVueI3nGS8uGwPDVi_S-27" style="edgeStyle=orthogonalEdgeStyle;rounded=0;orthogonalLoop=1;jettySize=auto;html=1;" edge="1" parent="1" source="zjVueI3nGS8uGwPDVi_S-21" target="zjVueI3nGS8uGwPDVi_S-25">
          <mxGeometry relative="1" as="geometry" />
        </mxCell>
        <mxCell id="zjVueI3nGS8uGwPDVi_S-21" value="Proxy" style="aspect=fixed;html=1;points=[];align=center;image;fontSize=12;image=img/lib/azure2/other/API_Proxy.svg;dashed=1;" vertex="1" parent="1">
          <mxGeometry x="391" y="410" width="68" height="38" as="geometry" />
        </mxCell>
        <mxCell id="zjVueI3nGS8uGwPDVi_S-22" value="" style="sketch=0;aspect=fixed;html=1;points=[];align=center;image;fontSize=12;image=img/lib/mscae/Azure_API_for_FHIR.svg;dashed=1;" vertex="1" parent="1">
          <mxGeometry x="300" y="500" width="50" height="50" as="geometry" />
        </mxCell>
        <mxCell id="zjVueI3nGS8uGwPDVi_S-48" style="edgeStyle=orthogonalEdgeStyle;rounded=0;orthogonalLoop=1;jettySize=auto;html=1;" edge="1" parent="1" source="zjVueI3nGS8uGwPDVi_S-24" target="zjVueI3nGS8uGwPDVi_S-38">
          <mxGeometry relative="1" as="geometry" />
        </mxCell>
        <mxCell id="zjVueI3nGS8uGwPDVi_S-24" value="" style="sketch=0;aspect=fixed;html=1;points=[];align=center;image;fontSize=12;image=img/lib/mscae/Azure_API_for_FHIR.svg;dashed=1;" vertex="1" parent="1">
          <mxGeometry x="400" y="500" width="50" height="50" as="geometry" />
        </mxCell>
        <mxCell id="zjVueI3nGS8uGwPDVi_S-25" value="" style="sketch=0;aspect=fixed;html=1;points=[];align=center;image;fontSize=12;image=img/lib/mscae/Azure_API_for_FHIR.svg;dashed=1;" vertex="1" parent="1">
          <mxGeometry x="500" y="500" width="50" height="50" as="geometry" />
        </mxCell>
        <mxCell id="zjVueI3nGS8uGwPDVi_S-32" value="" style="shape=image;verticalLabelPosition=bottom;labelBackgroundColor=default;verticalAlign=top;aspect=fixed;imageAspect=0;image=data:image/png,iVBORw0KGgoAAAANSUhEUgAAAMkAAADICAYAAABCmsWgAAAXeUlEQVR4nO2dv48kyZXfPy8iMqt6emaXxB5JiCBPMg4gCJmUIV84AWfJOeAAAXIkS8bhcMaZh7POvj9AjhyCgAz9Ayc5MmTIF0VJhnQAKZAiuZydX11VGRHvjIjIzOrp3ezJam53ct8H6OmpH12ZVRXffD/ixQvhn/5QMQzjPT77238BgHvk8zCMJ4+JxDAWMJEYxgImEsNYwERiGAuYSAxjAROJYSxgIjGMBUwkhrGAicQwFjCRGMYCJhLDWMBEYhgLmEgMYwETiWEsYCIxjAVMJIaxgInEMBYwkRjGAiYSw1jARGIYC5hIDGMBE4lhLGAiMYwFTCSGsYCJxDAWMJEYxgImEsNYwERiGAuYSAxjAROJYSxgIjGMBUwkhrGAicQwFjCRGMYCJhLDWMBEYhgLmEgMYwETiWEsYCIxjAVMJIaxgInEMBYwkRjGAiYSw1jARGIYC4THPoG1CAJaNS4ZRdu95S4tv1VAxztyfaw8S8dnG8bns11Log49ZHZuX26nAXAInqCCy4pX8FmQ9jYlgpxwRJxmBH200ze2w3ZFAly/eMHh3WtUErLvkODIKFkTKUWgWAtFQByIgAiKo7x1syTGMpt1t5DMIb+FbqC73jMcDhAjZNAusL+64nA4VZfKFddMAqiS6cpraALJj/o2jKfPZkWiKGk4QB8YTicYBrh+AYcTeThxc7zBd3syoOKK0ZBcjUcArf8VsybGF7NZkYAg4QoV4HSAcA05QI7s9tfk0wFNA45MajpwsUTxuYT4KhksLjEW2KxIhClhpb4D7+HNG/AOlwZON7/m+b64VUkCWQAZQBRPKIG/WOhuLLNZkQC4nMiaUJdBExKEvU/o4Rf84Pvf5vTuU4RIJqKSUXdCUFz2iHrGWMUwvoDNikRqTBGcZ6g5rCCQjq/4/j/6Bv/xR/+SPSWH1axFmUmZ8loWjRhfyJu3wIZF0lAFcR5NJVPVOyWfXrEHdoDnXAxzkRjGF3GovzcrEhVQLXMgLYmr1WYIEUcRSM/caiSEjKsyUSxsN5bZrkiA5GYThTiSaAnSiaNrJYAf0701/lBXJxXBZkmMJTYrEkRRUh34xU5kIAs1tVufxty10uleLVMkFrYbS2xXJORaiyUgXVGIAHlA3WnmRjUhKZCKhZESmbTg3zC+iA2LBGhRxTx9NVVr1Z989ux2z2hhLCgxFtisSEQFpx7FkSWACg7Fa8BlP5YwunEuRBBpknFj+byIqcT4YjYrEsb1JC0Yr26UOpxOIjmPShzC3HjomBFbdfzxR8dXm9DxR957vrv1nLVncNffT6+vs3/Pf8/TGpfQjtDiwrtW6EzHff+xbVQ8bFYkCqSWrZJUvC4ppSaoO/tCVCbXqmS5poEiKwfK+JWXIGd05Sby+DMtB/NlbcuYP7hwoGqtPRsTFZPVbIkJkHqz5fLa79n5rDv4+DraLHN9L+7O5zHTs47ntfbz/zLZrEjOP9tcB0IbrNPXNL/WNs9KpFgQueBqOtoPuXV7ZJrrl/mxbl/8144RbcdoR25vjslQvHfG7uy2XDStOssUzv4n7z1URDTajBo3lse2kVvcrkgenTaNWUZkGQhya+h4BM+5i8P5uNS1MzWuLk0WoAMSLYN3bqHm1lLq+fiVx5zT1ukIrmr/rvBucjilaWb883bGTx0TyWoUiExum0fx44A8z5zJ9DdnI+myIXJulDwQ0baOH2AUrpuE8hBWbP4CIpNh+JzzGy8RcvZJbAYTyWrmXz9AnrlvUgKh8Xnl8RI7tOunoHRc4nK4uQdTrYrMjlnikHOXSuXuK/6HM0taSH1PWu+rluz2J3Rbn1upoTORrMaBdtAG4pmLUy3GODrakGjRdG7PYu0wmVuq0YOR2cBlnnU6R+XywTmF7SX1jibO66ubYKeM4i2n85a1fbqYSNaiAtmfB6ktcSWznM14KRUggASUiJ4Nlw9nvE7nmSUSV8QpRYyik0imJMOUGL4ks1Sjn/q2HRApJdmTSNukblngxtkk7njkDcxTmUgu4dalUSm1Yw13xxW7DK4A55HCCqS4b665OdPdxa07j0FkvHnn9fyDcUCvAAPkT0EPtMLRyYPM5T4NCA7vmls29Ut72nwMmEguIEG+AR8geeg6osBhUPquXOc950JpV9PJTVlvSzJwEkVkeh0HDMORXZdRMiIOWmeYyiytcBl6gPwZr//Hf+V5/jkyfAZShlPWhNsFiKf6pvt6gjXRoW7y+Z5yUPIH/xYwkaxHgN6ThoT2e376/0/sP+p5fRDU10xOKhd6Vy+YmTI+cm3e4vP02IeSHXTXgVevoRPYB0gn+NYnz7jhQE8ulmo+gaPzNNSlI3SA4Zf87L//Z9797L/hbn7J3u+Q4HkXjyiRXnJpDph7AJIfUDJey6RnltEhe5L8/p+aSC4i4zlxRezgLfCv/vxv+F9/94ronuH6PSnWhLB6XA60ejF1kexOgNbBs/YrUA7HI1e7KzrtGd59ynf/gfDDf/8XfPuT0tWyY7Yyc5zIyDN354IPQBP4iB5+hT/8jOf6GV0OMDiCz4jL+HgkKDjtUYSkJyDj1CHqUN1GfstEshIFBk1k8Sjw6euOd+n3GPRjjm9bODuJpE00qsRSyi9KZge6cmJPFHTgkHaE5HEIvzm8oX9RZm9ACXcNwJamfYjBOQzIcOBFyHzdKfHmHUNOyM4hmtipFpHkhApETUBZBIfWCokN9D0zkazEkbmWyI16JALHEz0vOJ4cZMHtr8hpwGmdM9E24+xQfFkYJnl9dkcSPBfi8IZ4k+i7E4O85dUNfK0HzwHG2fUmxDb59xAxiQN3TcczfHSgEU6Z3ntidpyGiJPiTrpUauqaWCTXegV3nuh4arRozkSyEkGJ8YZd2JE6eNZfozkgssPtOzIZgqAKmnRKxwqIKCIZLun75QRu3sDVNe5qh4sRj9C5EsAnjjiu7pyLaAPzMnsigCfl2topDTgF7wLSdSgDLufi7qlHRRDv6sWhVCaIKO4Ji6RhIlmN0IVnHBVOEY7RM2jHKWnJ4vgEUtyqWNOgk2uVSxCd1w9SzYB7hhwc/hDodM8+XbMbSvOLHS9KgHyWk1YyiVQjlamIZs3bV5BI7sD14JKSFU565JgG1OWSnQZEIhnhJBkV8JKmQuwNYCJZTZkcVAXfUayGE3Ad9K32wzNOoWmbgZcy6acl87V6Lk0cSsapx/tAPmZIcNUDCbz354PwLKuVmSYzVsqkGBISkeNwJAm40FLRdXmAr5neXKcuxwl5qfVeTzm3NWEiWY2cVcBmeYuKQzSjscYaY9lKy/NWweRpFnz1oq+qOdVEdpndLhL9wGGA8Lw+x9U58bFLpTtbdnbZAC3Tok4ULwHN1KQz9DG3MIwIeBKQ8KlVLs/KcjZgTUwkD0AxEJFS5Fh33VKQXNwrlXhmMtqE3vpVkbNji6KSSURydWfGQ9WZ91wXp7lqyVpC6bIFT0X8Ms7eu1JgqVoWByhEN+YsarWMILNKmi1YEdjKqhfDeERMJIaxgInEMBYwkRjGAiYSw1jARGIYC5hIDGMBE4lhLGAiMYwFTCSGsYCJxDAWMJEYxgImEsNYwKqAL6GWsQag5xV7jjjeodpK0Vtheqr31c6GKnXN+wVVwKKl1JZSbh94S89AoPWHm1qc3q62vfjYXzFMJKspG5t6PJKFH/27v+I3r0HpcE7QlAjO1edNAmkiKa/AhR1LMuIcQ06gAx9fOz6+mrkH6uviphkPUib/1cJEsholpwHv4doF/uE3dnznEwi+Xb+nXiW3r9mfd/+H0jbgSXhOyeMEdq6sDMwx4nw/HeiWJi5rsvrVwkSyFhW87CDXHT/mCwCBnFuTA63NSd7vUnLpIB3XG0oRZ7mvLPhybvbVzjuaSrNtrRuwSWUJE8lqZOpbWm9OLaQU3zrIj21Ob3dPrPetticCsR5cpLh4KKp1A4a2rnh+yDOBGPfFRPIQ6Mx5aY0OxobVTSV3bD5w0VgVcMV8jMtxRciaS4+rs15CU+v7uUTMhtwPE8laareQsu1I7YaSU+314MC5euWe/mDe/qHc5S5qFKet24rotKOPk7rSHry0NejtLOb7hxj3xUSykgQcKFfxTiCgiKduP+DIQJpdyEurhMmq6APEA27c6TrROrFkHLGE7vQonlyPMgnEJPJhmEhWMndkHEckvwNitQ4Blx3O9Yx9rjSVx8fNSGEyRZecSAY9Qc7gd3jZk9jVzNftlvXnAjGx3A8TyUocJZPUc8LzEoZfQzhBjpAy+B5yqK5Yri0X277rMEXSa5vD1eA8DrUDdQenK2T3CR2BY3Y4V/ezbzv8zg5lArk/JpKVlJ2eygYMvPk5P/5P/4Hh5f9BTi8JvSdlJWnZyypkxaniUFQFFVd7F67PbmUnHKV0agyaUf8Rp6vv8oN/9ie4T77HzoUaptzass74YEwka1Hw2UGKEJT4/36CfPZjfPwl+2eOUzzQuw7RIhJfG7OVfobd2CP3fZfofiRXyl1CtyPfDCT3Caf9S+j/GGLEud1Mf+4soSak+nsb+4M8NiaSS0hC6Sua2OcD++5Ix1t8PpAFcs0+BS0eUdmQ15Poa1fDEyJp1aGzwrUvOx44YBCP01fACQ7voL8uIU9RI+cWa56KNpEsYSK5hADsPob8C7ILDLHYiHgqUxit123W0nG0hPCJKCdUBUe6oGF2yarlAXaADq/Z7WtyoHPTNyvQYiGt+5TI+K8J5D6YSFaiAoNC35X/ZBLHwzuu+4yX2RAUIahO6VpA6pyGu118+AEIJWHWudLE/vUhklIsiQNf3LGSdq5PnEmjxCkXHPwrholkJUpr/PwW3Du6LhI6h8/Q+UAcEk5KClg0UtLDjF3Vm5VZa0kyjiEr0vUMCvQvSN0VdB0Ez4kiEE8kSGJMNStMW8JhQrkH4XfmU1KdF0+Vu279fsjt+QQloGWOYjgxxMhVcOSbAaSD7JBqPkRLYZfWYkdpF/HWcn3N8cXhXSBlx9vjAd0HhpzhdISroe7JmNt2pjzMdgtfTcKDjpwvm1bdAWfbwbS6w7I5wHw9R/mjh6hfEqoZ1g665yQ6omZ2XsgZnHOkuuVC1gRoyUhJc4FqJdXqzz/j8gnvHDkokYjXWMtTMj1xnGtvszpy+01v+Kv/Mgmb2EXlC5hJY1an9EXv6bcRsDoSru4VouPKxLZ5aPNwxn05MuNWaWs//xLvVJNUjwt1taLW0v25GuYWS2w9yYcQShXSNrnrSxYyojrOAJTijNvlGLdtz1pqUCGZ7DLJZbIDqYGytk11aFat4JgP0nUiGbfQEVfSzbi6WU8rdWk/syOfFSubTO7LZmOSZjXm+9dOg3/yv9u+fGeV47Tdnh7qvX/+67QLfLng1wxTnVhUWTeRCC0BUP9Pm8UvxZWlYOZ2uvfsr7Fp+PsTZNwRdmsopWBwfnv6mTtV1SO5NS4uHRxCWUNedtV12eOzK/uWa9ndtizqUHwuUvUIqMPlEr1nSeQLhJLrFs/FkswvB/Oiybvcy9lKMWORcLbmdEvU/QBVtAak0yC5bV9+q9RL+pkgR0tWYoTxsWZJWlBwQe3W+Po1PJe2f+HMcs2feceJrz7uV42gq6d8nwIOUanBcqlF0tEXP08Bv59EeiifvA30DJKqZkqc16YjNNcQ3aVxvYmgeE2rC+VbBk+qVXAk3FhpfMuezH2z8VHjvgRW1g49OlqGQbkgl4Gq1RfXs9mBKec1X4P+cD55nQOp4zDL5M3lFiTX0ZqFEuTX9C9y2dHHBYkKTjOOXLNbxaJM77elDqbbFrbfn+2KBAfJI6Hsla4x1mBVGGKaXd+bU1LSosCYln2YNXq+WAfXc4jKTssciXght8xhDQFK5qvcdGd7Sa8jCKRUE2ySCEJZX1LFIqNKziday4XDJhfvy4YnEx0SAprqCIypzA/0HVdXz26F8ZWa4nqQbiFKzZ4L4HE4Ot/R4RF1HA8D0s2eS3WPFCTnMqVxwUcvgGboamHRIK5YkC5wR1Aynfboef025ot+NwnErWa3BPGgKeL6jm7/nNMwcDweOJ6OxESZMvgcx+LBEqAxgWb0OBCS4nIm+ADiqhhbMrbk4kSKBRCELHKBXHWskIwRkhNOQ4QhztzPmiiYe1ujOG2t+30Jsjp0fGwUISFByelIJKE5g0a6IHR+nmm6LZSHGh4KUooX+wDBCemkOI148QxpKIG7nlu1nEo0VWq51p2LAuICx5iJMSPP9vjuCnwoqjgToM2JXEJwK1fGPT6ZNBy5vr7i5uZAOr7D9zv2HUge0Ny6+mTGziQ1VYzIAzgbGfIN5NcgB1ROZDnhQnnhrBnxddVT6/0zvx5pa6e97iwyjkF6svdkIkn2JL8H14M6hpiQEGYRWS22ZJqHN+5HcBwe+xxWksl6JEfFMbC76hEH6e0NDqUb11PcGg4KMrpCFwYFXQ/hClLHSTryCXb9jpg6TrGJZLIaNTFMEKmB+/rDZzyDBsR58JnPbiLHzoPrwHc4F84vfzIWi53N6RjLBO9fPfY5rCYEz3B6RYyRzl8zDNAxsOt7Tke43sHZ7PvM55ELExaKI4qj4yM4XRH330J332LYHTm8A+09UYoUXc0mpTpKAyUtnOWC4F2V4IQcB652HeL2uN11WU783JPqW52M1+xioSBiSeD7Ev7sX//zxz6HlThEPIIv/W/FcTolPtorH/vfcL2b6pbOhsIDjYumt8iO8Oyb/ME/+SOeH75H6AZ4M8D1R4wrAtv4dEwBCjAtLFlDLq/3+jN4/gzynhv5Bnz9O5QueS0mu8ulM2frQwh/+W++/9jn8KC0OthaPUW9bpcHH9DPkPbKAvCCr/3jPwS9AY1M3RLv+KOz8XmJSBizWOUncCU7kD3QnS9xb/m1s8lF476E68c+g98688XlD/eq59fnHqQH+fjhDnAh5zlLE8UlbDX/axhfGiYSw1jARGIYC5hIDGMBE4lhLGAiMYwFTCSGsYCJxDAWMJEYxgImEsNYwERiGAuYSAxjAROJYSwQ0JePfQ7GFskvIb9kl9+gWnZCKf0lSqPAuxde1uYUrZ3SRpa1BNL/fexzMLZIfgmH/803w0t+Hg9o30NtxhEzhLp8urUWK+0F2mpIV+9ou8g8bcL//OFfP/Y5GBtkl9/yifyKX//0J/ShNNcY4pHOC50XvIM01PauUBectQVi22pFEcJP/8tjn4OxQTKZTxkQTfRdh+YBTRkVIWZlyNC1hmNnflfr3rIdwov8q8c+B2ODZByu3zNEZTjd4ETpu4ATRXPGh2o44Kzt2VmDdt2GNQmXdg0xvpo44Hh4i/jSXtU5RxBHHIYSdThHSjOLcdbWdRviaATZiJqNJ4YowSn9LhCHiOZETqkE6wKHm0zX8TuxvH7DHRyNx0QVggfyQI657ArjBQm+9ELWI5NCphbd722TsoFrdNjAORpPEJXS1T5pxgnsuuJeHW4Su13pg1ae2LZ9mPZM2dqYC9Hm3I0VyOyndLYvHknfU7fonjc5UzZjNu4gXLJHhvHV5s49iEYPqwqjqYjZrOK5F/bkCX4jJ2o8TaaJwlv3ytyCnLO1bTrD1k7YeDqMAmm/bwvljr0at2hKApvdx914XOqeK7MphOa6jx383xMIvF94/vSFYmG7sQodtwMqzcHnse1oYd4rR6l36nsPPmlCdlvdfdd4VHQukjbX9v4GdEiLQWR8oO06tpWkkVkSYx1jMPuB7tIGS1PCRsRsPDXG9SDt9mzQy+3nzf+jm6vhChs5T+NJ8jmD53PH1DYHm7lbhrGAicQwFjCRGMYCJhLDWMBEYhgLmEgMYwETiWEsYCIxjAVMJIaxgInEMBYwkRjGAiYSw1jARGIYC5hIDGMBE4lhLGAiMYwFTCSGsYCJxDAWMJEYxgImEsNYwERiGAuYSAxjAROJYSxgIjGMBUwkhrGAicQwFjCRGMYCJhLDWMBEYhgLmEgMYwETiWEsYCIxjAVMJIaxgInEMBYwkRjGAiYSw1jARGIYC5hIDGMB+ez1m23uG2wYXxJ/D6hoFYdbUh3zAAAAAElFTkSuQmCC;" vertex="1" parent="1">
          <mxGeometry x="94" y="80" width="100.5" height="100" as="geometry" />
        </mxCell>
        <mxCell id="zjVueI3nGS8uGwPDVi_S-34" value="" style="shape=image;verticalLabelPosition=bottom;labelBackgroundColor=default;verticalAlign=top;aspect=fixed;imageAspect=0;image=data:image/png,iVBORw0KGgoAAAANSUhEUgAAAMkAAADICAYAAABCmsWgAAAXeUlEQVR4nO2dv48kyZXfPy8iMqt6emaXxB5JiCBPMg4gCJmUIV84AWfJOeAAAXIkS8bhcMaZh7POvj9AjhyCgAz9Ayc5MmTIF0VJhnQAKZAiuZydX11VGRHvjIjIzOrp3ezJam53ct8H6OmpH12ZVRXffD/ixQvhn/5QMQzjPT77238BgHvk8zCMJ4+JxDAWMJEYxgImEsNYwERiGAuYSAxjAROJYSxgIjGMBUwkhrGAicQwFjCRGMYCJhLDWMBEYhgLmEgMYwETiWEsYCIxjAVMJIaxgInEMBYwkRjGAiYSw1jARGIYC5hIDGMBE4lhLGAiMYwFTCSGsYCJxDAWMJEYxgImEsNYwERiGAuYSAxjAROJYSxgIjGMBUwkhrGAicQwFjCRGMYCJhLDWMBEYhgLmEgMYwETiWEsYCIxjAVMJIaxgInEMBYwkRjGAiYSw1jARGIYC4THPoG1CAJaNS4ZRdu95S4tv1VAxztyfaw8S8dnG8bns11Log49ZHZuX26nAXAInqCCy4pX8FmQ9jYlgpxwRJxmBH200ze2w3ZFAly/eMHh3WtUErLvkODIKFkTKUWgWAtFQByIgAiKo7x1syTGMpt1t5DMIb+FbqC73jMcDhAjZNAusL+64nA4VZfKFddMAqiS6cpraALJj/o2jKfPZkWiKGk4QB8YTicYBrh+AYcTeThxc7zBd3syoOKK0ZBcjUcArf8VsybGF7NZkYAg4QoV4HSAcA05QI7s9tfk0wFNA45MajpwsUTxuYT4KhksLjEW2KxIhClhpb4D7+HNG/AOlwZON7/m+b64VUkCWQAZQBRPKIG/WOhuLLNZkQC4nMiaUJdBExKEvU/o4Rf84Pvf5vTuU4RIJqKSUXdCUFz2iHrGWMUwvoDNikRqTBGcZ6g5rCCQjq/4/j/6Bv/xR/+SPSWH1axFmUmZ8loWjRhfyJu3wIZF0lAFcR5NJVPVOyWfXrEHdoDnXAxzkRjGF3GovzcrEhVQLXMgLYmr1WYIEUcRSM/caiSEjKsyUSxsN5bZrkiA5GYThTiSaAnSiaNrJYAf0701/lBXJxXBZkmMJTYrEkRRUh34xU5kIAs1tVufxty10uleLVMkFrYbS2xXJORaiyUgXVGIAHlA3WnmRjUhKZCKhZESmbTg3zC+iA2LBGhRxTx9NVVr1Z989ux2z2hhLCgxFtisSEQFpx7FkSWACg7Fa8BlP5YwunEuRBBpknFj+byIqcT4YjYrEsb1JC0Yr26UOpxOIjmPShzC3HjomBFbdfzxR8dXm9DxR957vrv1nLVncNffT6+vs3/Pf8/TGpfQjtDiwrtW6EzHff+xbVQ8bFYkCqSWrZJUvC4ppSaoO/tCVCbXqmS5poEiKwfK+JWXIGd05Sby+DMtB/NlbcuYP7hwoGqtPRsTFZPVbIkJkHqz5fLa79n5rDv4+DraLHN9L+7O5zHTs47ntfbz/zLZrEjOP9tcB0IbrNPXNL/WNs9KpFgQueBqOtoPuXV7ZJrrl/mxbl/8144RbcdoR25vjslQvHfG7uy2XDStOssUzv4n7z1URDTajBo3lse2kVvcrkgenTaNWUZkGQhya+h4BM+5i8P5uNS1MzWuLk0WoAMSLYN3bqHm1lLq+fiVx5zT1ukIrmr/rvBucjilaWb883bGTx0TyWoUiExum0fx44A8z5zJ9DdnI+myIXJulDwQ0baOH2AUrpuE8hBWbP4CIpNh+JzzGy8RcvZJbAYTyWrmXz9AnrlvUgKh8Xnl8RI7tOunoHRc4nK4uQdTrYrMjlnikHOXSuXuK/6HM0taSH1PWu+rluz2J3Rbn1upoTORrMaBdtAG4pmLUy3GODrakGjRdG7PYu0wmVuq0YOR2cBlnnU6R+XywTmF7SX1jibO66ubYKeM4i2n85a1fbqYSNaiAtmfB6ktcSWznM14KRUggASUiJ4Nlw9nvE7nmSUSV8QpRYyik0imJMOUGL4ks1Sjn/q2HRApJdmTSNukblngxtkk7njkDcxTmUgu4dalUSm1Yw13xxW7DK4A55HCCqS4b665OdPdxa07j0FkvHnn9fyDcUCvAAPkT0EPtMLRyYPM5T4NCA7vmls29Ut72nwMmEguIEG+AR8geeg6osBhUPquXOc950JpV9PJTVlvSzJwEkVkeh0HDMORXZdRMiIOWmeYyiytcBl6gPwZr//Hf+V5/jkyfAZShlPWhNsFiKf6pvt6gjXRoW7y+Z5yUPIH/xYwkaxHgN6ThoT2e376/0/sP+p5fRDU10xOKhd6Vy+YmTI+cm3e4vP02IeSHXTXgVevoRPYB0gn+NYnz7jhQE8ulmo+gaPzNNSlI3SA4Zf87L//Z9797L/hbn7J3u+Q4HkXjyiRXnJpDph7AJIfUDJey6RnltEhe5L8/p+aSC4i4zlxRezgLfCv/vxv+F9/94ronuH6PSnWhLB6XA60ejF1kexOgNbBs/YrUA7HI1e7KzrtGd59ynf/gfDDf/8XfPuT0tWyY7Yyc5zIyDN354IPQBP4iB5+hT/8jOf6GV0OMDiCz4jL+HgkKDjtUYSkJyDj1CHqUN1GfstEshIFBk1k8Sjw6euOd+n3GPRjjm9bODuJpE00qsRSyi9KZge6cmJPFHTgkHaE5HEIvzm8oX9RZm9ACXcNwJamfYjBOQzIcOBFyHzdKfHmHUNOyM4hmtipFpHkhApETUBZBIfWCokN9D0zkazEkbmWyI16JALHEz0vOJ4cZMHtr8hpwGmdM9E24+xQfFkYJnl9dkcSPBfi8IZ4k+i7E4O85dUNfK0HzwHG2fUmxDb59xAxiQN3TcczfHSgEU6Z3ntidpyGiJPiTrpUauqaWCTXegV3nuh4arRozkSyEkGJ8YZd2JE6eNZfozkgssPtOzIZgqAKmnRKxwqIKCIZLun75QRu3sDVNe5qh4sRj9C5EsAnjjiu7pyLaAPzMnsigCfl2topDTgF7wLSdSgDLufi7qlHRRDv6sWhVCaIKO4Ji6RhIlmN0IVnHBVOEY7RM2jHKWnJ4vgEUtyqWNOgk2uVSxCd1w9SzYB7hhwc/hDodM8+XbMbSvOLHS9KgHyWk1YyiVQjlamIZs3bV5BI7sD14JKSFU565JgG1OWSnQZEIhnhJBkV8JKmQuwNYCJZTZkcVAXfUayGE3Ad9K32wzNOoWmbgZcy6acl87V6Lk0cSsapx/tAPmZIcNUDCbz354PwLKuVmSYzVsqkGBISkeNwJAm40FLRdXmAr5neXKcuxwl5qfVeTzm3NWEiWY2cVcBmeYuKQzSjscYaY9lKy/NWweRpFnz1oq+qOdVEdpndLhL9wGGA8Lw+x9U58bFLpTtbdnbZAC3Tok4ULwHN1KQz9DG3MIwIeBKQ8KlVLs/KcjZgTUwkD0AxEJFS5Fh33VKQXNwrlXhmMtqE3vpVkbNji6KSSURydWfGQ9WZ91wXp7lqyVpC6bIFT0X8Ms7eu1JgqVoWByhEN+YsarWMILNKmi1YEdjKqhfDeERMJIaxgInEMBYwkRjGAiYSw1jARGIYC5hIDGMBE4lhLGAiMYwFTCSGsYCJxDAWMJEYxgImEsNYwKqAL6GWsQag5xV7jjjeodpK0Vtheqr31c6GKnXN+wVVwKKl1JZSbh94S89AoPWHm1qc3q62vfjYXzFMJKspG5t6PJKFH/27v+I3r0HpcE7QlAjO1edNAmkiKa/AhR1LMuIcQ06gAx9fOz6+mrkH6uviphkPUib/1cJEsholpwHv4doF/uE3dnznEwi+Xb+nXiW3r9mfd/+H0jbgSXhOyeMEdq6sDMwx4nw/HeiWJi5rsvrVwkSyFhW87CDXHT/mCwCBnFuTA63NSd7vUnLpIB3XG0oRZ7mvLPhybvbVzjuaSrNtrRuwSWUJE8lqZOpbWm9OLaQU3zrIj21Ob3dPrPetticCsR5cpLh4KKp1A4a2rnh+yDOBGPfFRPIQ6Mx5aY0OxobVTSV3bD5w0VgVcMV8jMtxRciaS4+rs15CU+v7uUTMhtwPE8laareQsu1I7YaSU+314MC5euWe/mDe/qHc5S5qFKet24rotKOPk7rSHry0NejtLOb7hxj3xUSykgQcKFfxTiCgiKduP+DIQJpdyEurhMmq6APEA27c6TrROrFkHLGE7vQonlyPMgnEJPJhmEhWMndkHEckvwNitQ4Blx3O9Yx9rjSVx8fNSGEyRZecSAY9Qc7gd3jZk9jVzNftlvXnAjGx3A8TyUocJZPUc8LzEoZfQzhBjpAy+B5yqK5Yri0X277rMEXSa5vD1eA8DrUDdQenK2T3CR2BY3Y4V/ezbzv8zg5lArk/JpKVlJ2eygYMvPk5P/5P/4Hh5f9BTi8JvSdlJWnZyypkxaniUFQFFVd7F67PbmUnHKV0agyaUf8Rp6vv8oN/9ie4T77HzoUaptzass74YEwka1Hw2UGKEJT4/36CfPZjfPwl+2eOUzzQuw7RIhJfG7OVfobd2CP3fZfofiRXyl1CtyPfDCT3Caf9S+j/GGLEud1Mf+4soSak+nsb+4M8NiaSS0hC6Sua2OcD++5Ix1t8PpAFcs0+BS0eUdmQ15Poa1fDEyJp1aGzwrUvOx44YBCP01fACQ7voL8uIU9RI+cWa56KNpEsYSK5hADsPob8C7ILDLHYiHgqUxit123W0nG0hPCJKCdUBUe6oGF2yarlAXaADq/Z7WtyoHPTNyvQYiGt+5TI+K8J5D6YSFaiAoNC35X/ZBLHwzuu+4yX2RAUIahO6VpA6pyGu118+AEIJWHWudLE/vUhklIsiQNf3LGSdq5PnEmjxCkXHPwrholkJUpr/PwW3Du6LhI6h8/Q+UAcEk5KClg0UtLDjF3Vm5VZa0kyjiEr0vUMCvQvSN0VdB0Ez4kiEE8kSGJMNStMW8JhQrkH4XfmU1KdF0+Vu279fsjt+QQloGWOYjgxxMhVcOSbAaSD7JBqPkRLYZfWYkdpF/HWcn3N8cXhXSBlx9vjAd0HhpzhdISroe7JmNt2pjzMdgtfTcKDjpwvm1bdAWfbwbS6w7I5wHw9R/mjh6hfEqoZ1g665yQ6omZ2XsgZnHOkuuVC1gRoyUhJc4FqJdXqzz/j8gnvHDkokYjXWMtTMj1xnGtvszpy+01v+Kv/Mgmb2EXlC5hJY1an9EXv6bcRsDoSru4VouPKxLZ5aPNwxn05MuNWaWs//xLvVJNUjwt1taLW0v25GuYWS2w9yYcQShXSNrnrSxYyojrOAJTijNvlGLdtz1pqUCGZ7DLJZbIDqYGytk11aFat4JgP0nUiGbfQEVfSzbi6WU8rdWk/syOfFSubTO7LZmOSZjXm+9dOg3/yv9u+fGeV47Tdnh7qvX/+67QLfLng1wxTnVhUWTeRCC0BUP9Pm8UvxZWlYOZ2uvfsr7Fp+PsTZNwRdmsopWBwfnv6mTtV1SO5NS4uHRxCWUNedtV12eOzK/uWa9ndtizqUHwuUvUIqMPlEr1nSeQLhJLrFs/FkswvB/Oiybvcy9lKMWORcLbmdEvU/QBVtAak0yC5bV9+q9RL+pkgR0tWYoTxsWZJWlBwQe3W+Po1PJe2f+HMcs2feceJrz7uV42gq6d8nwIOUanBcqlF0tEXP08Bv59EeiifvA30DJKqZkqc16YjNNcQ3aVxvYmgeE2rC+VbBk+qVXAk3FhpfMuezH2z8VHjvgRW1g49OlqGQbkgl4Gq1RfXs9mBKec1X4P+cD55nQOp4zDL5M3lFiTX0ZqFEuTX9C9y2dHHBYkKTjOOXLNbxaJM77elDqbbFrbfn+2KBAfJI6Hsla4x1mBVGGKaXd+bU1LSosCYln2YNXq+WAfXc4jKTssciXght8xhDQFK5qvcdGd7Sa8jCKRUE2ySCEJZX1LFIqNKziday4XDJhfvy4YnEx0SAprqCIypzA/0HVdXz26F8ZWa4nqQbiFKzZ4L4HE4Ot/R4RF1HA8D0s2eS3WPFCTnMqVxwUcvgGboamHRIK5YkC5wR1Aynfboef025ot+NwnErWa3BPGgKeL6jm7/nNMwcDweOJ6OxESZMvgcx+LBEqAxgWb0OBCS4nIm+ADiqhhbMrbk4kSKBRCELHKBXHWskIwRkhNOQ4QhztzPmiiYe1ujOG2t+30Jsjp0fGwUISFByelIJKE5g0a6IHR+nmm6LZSHGh4KUooX+wDBCemkOI148QxpKIG7nlu1nEo0VWq51p2LAuICx5iJMSPP9vjuCnwoqjgToM2JXEJwK1fGPT6ZNBy5vr7i5uZAOr7D9zv2HUge0Ny6+mTGziQ1VYzIAzgbGfIN5NcgB1ROZDnhQnnhrBnxddVT6/0zvx5pa6e97iwyjkF6svdkIkn2JL8H14M6hpiQEGYRWS22ZJqHN+5HcBwe+xxWksl6JEfFMbC76hEH6e0NDqUb11PcGg4KMrpCFwYFXQ/hClLHSTryCXb9jpg6TrGJZLIaNTFMEKmB+/rDZzyDBsR58JnPbiLHzoPrwHc4F84vfzIWi53N6RjLBO9fPfY5rCYEz3B6RYyRzl8zDNAxsOt7Tke43sHZ7PvM55ELExaKI4qj4yM4XRH330J332LYHTm8A+09UYoUXc0mpTpKAyUtnOWC4F2V4IQcB652HeL2uN11WU783JPqW52M1+xioSBiSeD7Ev7sX//zxz6HlThEPIIv/W/FcTolPtorH/vfcL2b6pbOhsIDjYumt8iO8Oyb/ME/+SOeH75H6AZ4M8D1R4wrAtv4dEwBCjAtLFlDLq/3+jN4/gzynhv5Bnz9O5QueS0mu8ulM2frQwh/+W++/9jn8KC0OthaPUW9bpcHH9DPkPbKAvCCr/3jPwS9AY1M3RLv+KOz8XmJSBizWOUncCU7kD3QnS9xb/m1s8lF476E68c+g98688XlD/eq59fnHqQH+fjhDnAh5zlLE8UlbDX/axhfGiYSw1jARGIYC5hIDGMBE4lhLGAiMYwFTCSGsYCJxDAWMJEYxgImEsNYwERiGAuYSAxjAROJYSwQ0JePfQ7GFskvIb9kl9+gWnZCKf0lSqPAuxde1uYUrZ3SRpa1BNL/fexzMLZIfgmH/803w0t+Hg9o30NtxhEzhLp8urUWK+0F2mpIV+9ou8g8bcL//OFfP/Y5GBtkl9/yifyKX//0J/ShNNcY4pHOC50XvIM01PauUBectQVi22pFEcJP/8tjn4OxQTKZTxkQTfRdh+YBTRkVIWZlyNC1hmNnflfr3rIdwov8q8c+B2ODZByu3zNEZTjd4ETpu4ATRXPGh2o44Kzt2VmDdt2GNQmXdg0xvpo44Hh4i/jSXtU5RxBHHIYSdThHSjOLcdbWdRviaATZiJqNJ4YowSn9LhCHiOZETqkE6wKHm0zX8TuxvH7DHRyNx0QVggfyQI657ArjBQm+9ELWI5NCphbd722TsoFrdNjAORpPEJXS1T5pxgnsuuJeHW4Su13pg1ae2LZ9mPZM2dqYC9Hm3I0VyOyndLYvHknfU7fonjc5UzZjNu4gXLJHhvHV5s49iEYPqwqjqYjZrOK5F/bkCX4jJ2o8TaaJwlv3ytyCnLO1bTrD1k7YeDqMAmm/bwvljr0at2hKApvdx914XOqeK7MphOa6jx383xMIvF94/vSFYmG7sQodtwMqzcHnse1oYd4rR6l36nsPPmlCdlvdfdd4VHQukjbX9v4GdEiLQWR8oO06tpWkkVkSYx1jMPuB7tIGS1PCRsRsPDXG9SDt9mzQy+3nzf+jm6vhChs5T+NJ8jmD53PH1DYHm7lbhrGAicQwFjCRGMYCJhLDWMBEYhgLmEgMYwETiWEsYCIxjAVMJIaxgInEMBYwkRjGAiYSw1jARGIYC5hIDGMBE4lhLGAiMYwFTCSGsYCJxDAWMJEYxgImEsNYwERiGAuYSAxjAROJYSxgIjGMBUwkhrGAicQwFjCRGMYCJhLDWMBEYhgLmEgMYwETiWEsYCIxjAVMJIaxgInEMBYwkRjGAiYSw1jARGIYC5hIDGMB+ez1m23uG2wYXxJ/D6hoFYdbUh3zAAAAAElFTkSuQmCC;" vertex="1" parent="1">
          <mxGeometry x="650" y="80" width="100.5" height="100" as="geometry" />
        </mxCell>
        <mxCell id="zjVueI3nGS8uGwPDVi_S-35" value="" style="shape=image;verticalLabelPosition=bottom;labelBackgroundColor=default;verticalAlign=top;aspect=fixed;imageAspect=0;image=data:image/png,iVBORw0KGgoAAAANSUhEUgAAAMkAAADICAYAAABCmsWgAAAXeUlEQVR4nO2dv48kyZXfPy8iMqt6emaXxB5JiCBPMg4gCJmUIV84AWfJOeAAAXIkS8bhcMaZh7POvj9AjhyCgAz9Ayc5MmTIF0VJhnQAKZAiuZydX11VGRHvjIjIzOrp3ezJam53ct8H6OmpH12ZVRXffD/ixQvhn/5QMQzjPT77238BgHvk8zCMJ4+JxDAWMJEYxgImEsNYwERiGAuYSAxjAROJYSxgIjGMBUwkhrGAicQwFjCRGMYCJhLDWMBEYhgLmEgMYwETiWEsYCIxjAVMJIaxgInEMBYwkRjGAiYSw1jARGIYC5hIDGMBE4lhLGAiMYwFTCSGsYCJxDAWMJEYxgImEsNYwERiGAuYSAxjAROJYSxgIjGMBUwkhrGAicQwFjCRGMYCJhLDWMBEYhgLmEgMYwETiWEsYCIxjAVMJIaxgInEMBYwkRjGAiYSw1jARGIYC4THPoG1CAJaNS4ZRdu95S4tv1VAxztyfaw8S8dnG8bns11Log49ZHZuX26nAXAInqCCy4pX8FmQ9jYlgpxwRJxmBH200ze2w3ZFAly/eMHh3WtUErLvkODIKFkTKUWgWAtFQByIgAiKo7x1syTGMpt1t5DMIb+FbqC73jMcDhAjZNAusL+64nA4VZfKFddMAqiS6cpraALJj/o2jKfPZkWiKGk4QB8YTicYBrh+AYcTeThxc7zBd3syoOKK0ZBcjUcArf8VsybGF7NZkYAg4QoV4HSAcA05QI7s9tfk0wFNA45MajpwsUTxuYT4KhksLjEW2KxIhClhpb4D7+HNG/AOlwZON7/m+b64VUkCWQAZQBRPKIG/WOhuLLNZkQC4nMiaUJdBExKEvU/o4Rf84Pvf5vTuU4RIJqKSUXdCUFz2iHrGWMUwvoDNikRqTBGcZ6g5rCCQjq/4/j/6Bv/xR/+SPSWH1axFmUmZ8loWjRhfyJu3wIZF0lAFcR5NJVPVOyWfXrEHdoDnXAxzkRjGF3GovzcrEhVQLXMgLYmr1WYIEUcRSM/caiSEjKsyUSxsN5bZrkiA5GYThTiSaAnSiaNrJYAf0701/lBXJxXBZkmMJTYrEkRRUh34xU5kIAs1tVufxty10uleLVMkFrYbS2xXJORaiyUgXVGIAHlA3WnmRjUhKZCKhZESmbTg3zC+iA2LBGhRxTx9NVVr1Z989ux2z2hhLCgxFtisSEQFpx7FkSWACg7Fa8BlP5YwunEuRBBpknFj+byIqcT4YjYrEsb1JC0Yr26UOpxOIjmPShzC3HjomBFbdfzxR8dXm9DxR957vrv1nLVncNffT6+vs3/Pf8/TGpfQjtDiwrtW6EzHff+xbVQ8bFYkCqSWrZJUvC4ppSaoO/tCVCbXqmS5poEiKwfK+JWXIGd05Sby+DMtB/NlbcuYP7hwoGqtPRsTFZPVbIkJkHqz5fLa79n5rDv4+DraLHN9L+7O5zHTs47ntfbz/zLZrEjOP9tcB0IbrNPXNL/WNs9KpFgQueBqOtoPuXV7ZJrrl/mxbl/8144RbcdoR25vjslQvHfG7uy2XDStOssUzv4n7z1URDTajBo3lse2kVvcrkgenTaNWUZkGQhya+h4BM+5i8P5uNS1MzWuLk0WoAMSLYN3bqHm1lLq+fiVx5zT1ukIrmr/rvBucjilaWb883bGTx0TyWoUiExum0fx44A8z5zJ9DdnI+myIXJulDwQ0baOH2AUrpuE8hBWbP4CIpNh+JzzGy8RcvZJbAYTyWrmXz9AnrlvUgKh8Xnl8RI7tOunoHRc4nK4uQdTrYrMjlnikHOXSuXuK/6HM0taSH1PWu+rluz2J3Rbn1upoTORrMaBdtAG4pmLUy3GODrakGjRdG7PYu0wmVuq0YOR2cBlnnU6R+XywTmF7SX1jibO66ubYKeM4i2n85a1fbqYSNaiAtmfB6ktcSWznM14KRUggASUiJ4Nlw9nvE7nmSUSV8QpRYyik0imJMOUGL4ks1Sjn/q2HRApJdmTSNukblngxtkk7njkDcxTmUgu4dalUSm1Yw13xxW7DK4A55HCCqS4b665OdPdxa07j0FkvHnn9fyDcUCvAAPkT0EPtMLRyYPM5T4NCA7vmls29Ut72nwMmEguIEG+AR8geeg6osBhUPquXOc950JpV9PJTVlvSzJwEkVkeh0HDMORXZdRMiIOWmeYyiytcBl6gPwZr//Hf+V5/jkyfAZShlPWhNsFiKf6pvt6gjXRoW7y+Z5yUPIH/xYwkaxHgN6ThoT2e376/0/sP+p5fRDU10xOKhd6Vy+YmTI+cm3e4vP02IeSHXTXgVevoRPYB0gn+NYnz7jhQE8ulmo+gaPzNNSlI3SA4Zf87L//Z9797L/hbn7J3u+Q4HkXjyiRXnJpDph7AJIfUDJey6RnltEhe5L8/p+aSC4i4zlxRezgLfCv/vxv+F9/94ronuH6PSnWhLB6XA60ejF1kexOgNbBs/YrUA7HI1e7KzrtGd59ynf/gfDDf/8XfPuT0tWyY7Yyc5zIyDN354IPQBP4iB5+hT/8jOf6GV0OMDiCz4jL+HgkKDjtUYSkJyDj1CHqUN1GfstEshIFBk1k8Sjw6euOd+n3GPRjjm9bODuJpE00qsRSyi9KZge6cmJPFHTgkHaE5HEIvzm8oX9RZm9ACXcNwJamfYjBOQzIcOBFyHzdKfHmHUNOyM4hmtipFpHkhApETUBZBIfWCokN9D0zkazEkbmWyI16JALHEz0vOJ4cZMHtr8hpwGmdM9E24+xQfFkYJnl9dkcSPBfi8IZ4k+i7E4O85dUNfK0HzwHG2fUmxDb59xAxiQN3TcczfHSgEU6Z3ntidpyGiJPiTrpUauqaWCTXegV3nuh4arRozkSyEkGJ8YZd2JE6eNZfozkgssPtOzIZgqAKmnRKxwqIKCIZLun75QRu3sDVNe5qh4sRj9C5EsAnjjiu7pyLaAPzMnsigCfl2topDTgF7wLSdSgDLufi7qlHRRDv6sWhVCaIKO4Ji6RhIlmN0IVnHBVOEY7RM2jHKWnJ4vgEUtyqWNOgk2uVSxCd1w9SzYB7hhwc/hDodM8+XbMbSvOLHS9KgHyWk1YyiVQjlamIZs3bV5BI7sD14JKSFU565JgG1OWSnQZEIhnhJBkV8JKmQuwNYCJZTZkcVAXfUayGE3Ad9K32wzNOoWmbgZcy6acl87V6Lk0cSsapx/tAPmZIcNUDCbz354PwLKuVmSYzVsqkGBISkeNwJAm40FLRdXmAr5neXKcuxwl5qfVeTzm3NWEiWY2cVcBmeYuKQzSjscYaY9lKy/NWweRpFnz1oq+qOdVEdpndLhL9wGGA8Lw+x9U58bFLpTtbdnbZAC3Tok4ULwHN1KQz9DG3MIwIeBKQ8KlVLs/KcjZgTUwkD0AxEJFS5Fh33VKQXNwrlXhmMtqE3vpVkbNji6KSSURydWfGQ9WZ91wXp7lqyVpC6bIFT0X8Ms7eu1JgqVoWByhEN+YsarWMILNKmi1YEdjKqhfDeERMJIaxgInEMBYwkRjGAiYSw1jARGIYC5hIDGMBE4lhLGAiMYwFTCSGsYCJxDAWMJEYxgImEsNYwKqAL6GWsQag5xV7jjjeodpK0Vtheqr31c6GKnXN+wVVwKKl1JZSbh94S89AoPWHm1qc3q62vfjYXzFMJKspG5t6PJKFH/27v+I3r0HpcE7QlAjO1edNAmkiKa/AhR1LMuIcQ06gAx9fOz6+mrkH6uviphkPUib/1cJEsholpwHv4doF/uE3dnznEwi+Xb+nXiW3r9mfd/+H0jbgSXhOyeMEdq6sDMwx4nw/HeiWJi5rsvrVwkSyFhW87CDXHT/mCwCBnFuTA63NSd7vUnLpIB3XG0oRZ7mvLPhybvbVzjuaSrNtrRuwSWUJE8lqZOpbWm9OLaQU3zrIj21Ob3dPrPetticCsR5cpLh4KKp1A4a2rnh+yDOBGPfFRPIQ6Mx5aY0OxobVTSV3bD5w0VgVcMV8jMtxRciaS4+rs15CU+v7uUTMhtwPE8laareQsu1I7YaSU+314MC5euWe/mDe/qHc5S5qFKet24rotKOPk7rSHry0NejtLOb7hxj3xUSykgQcKFfxTiCgiKduP+DIQJpdyEurhMmq6APEA27c6TrROrFkHLGE7vQonlyPMgnEJPJhmEhWMndkHEckvwNitQ4Blx3O9Yx9rjSVx8fNSGEyRZecSAY9Qc7gd3jZk9jVzNftlvXnAjGx3A8TyUocJZPUc8LzEoZfQzhBjpAy+B5yqK5Yri0X277rMEXSa5vD1eA8DrUDdQenK2T3CR2BY3Y4V/ezbzv8zg5lArk/JpKVlJ2eygYMvPk5P/5P/4Hh5f9BTi8JvSdlJWnZyypkxaniUFQFFVd7F67PbmUnHKV0agyaUf8Rp6vv8oN/9ie4T77HzoUaptzass74YEwka1Hw2UGKEJT4/36CfPZjfPwl+2eOUzzQuw7RIhJfG7OVfobd2CP3fZfofiRXyl1CtyPfDCT3Caf9S+j/GGLEud1Mf+4soSak+nsb+4M8NiaSS0hC6Sua2OcD++5Ix1t8PpAFcs0+BS0eUdmQ15Poa1fDEyJp1aGzwrUvOx44YBCP01fACQ7voL8uIU9RI+cWa56KNpEsYSK5hADsPob8C7ILDLHYiHgqUxit123W0nG0hPCJKCdUBUe6oGF2yarlAXaADq/Z7WtyoHPTNyvQYiGt+5TI+K8J5D6YSFaiAoNC35X/ZBLHwzuu+4yX2RAUIahO6VpA6pyGu118+AEIJWHWudLE/vUhklIsiQNf3LGSdq5PnEmjxCkXHPwrholkJUpr/PwW3Du6LhI6h8/Q+UAcEk5KClg0UtLDjF3Vm5VZa0kyjiEr0vUMCvQvSN0VdB0Ez4kiEE8kSGJMNStMW8JhQrkH4XfmU1KdF0+Vu279fsjt+QQloGWOYjgxxMhVcOSbAaSD7JBqPkRLYZfWYkdpF/HWcn3N8cXhXSBlx9vjAd0HhpzhdISroe7JmNt2pjzMdgtfTcKDjpwvm1bdAWfbwbS6w7I5wHw9R/mjh6hfEqoZ1g665yQ6omZ2XsgZnHOkuuVC1gRoyUhJc4FqJdXqzz/j8gnvHDkokYjXWMtTMj1xnGtvszpy+01v+Kv/Mgmb2EXlC5hJY1an9EXv6bcRsDoSru4VouPKxLZ5aPNwxn05MuNWaWs//xLvVJNUjwt1taLW0v25GuYWS2w9yYcQShXSNrnrSxYyojrOAJTijNvlGLdtz1pqUCGZ7DLJZbIDqYGytk11aFat4JgP0nUiGbfQEVfSzbi6WU8rdWk/syOfFSubTO7LZmOSZjXm+9dOg3/yv9u+fGeV47Tdnh7qvX/+67QLfLng1wxTnVhUWTeRCC0BUP9Pm8UvxZWlYOZ2uvfsr7Fp+PsTZNwRdmsopWBwfnv6mTtV1SO5NS4uHRxCWUNedtV12eOzK/uWa9ndtizqUHwuUvUIqMPlEr1nSeQLhJLrFs/FkswvB/Oiybvcy9lKMWORcLbmdEvU/QBVtAak0yC5bV9+q9RL+pkgR0tWYoTxsWZJWlBwQe3W+Po1PJe2f+HMcs2feceJrz7uV42gq6d8nwIOUanBcqlF0tEXP08Bv59EeiifvA30DJKqZkqc16YjNNcQ3aVxvYmgeE2rC+VbBk+qVXAk3FhpfMuezH2z8VHjvgRW1g49OlqGQbkgl4Gq1RfXs9mBKec1X4P+cD55nQOp4zDL5M3lFiTX0ZqFEuTX9C9y2dHHBYkKTjOOXLNbxaJM77elDqbbFrbfn+2KBAfJI6Hsla4x1mBVGGKaXd+bU1LSosCYln2YNXq+WAfXc4jKTssciXght8xhDQFK5qvcdGd7Sa8jCKRUE2ySCEJZX1LFIqNKziday4XDJhfvy4YnEx0SAprqCIypzA/0HVdXz26F8ZWa4nqQbiFKzZ4L4HE4Ot/R4RF1HA8D0s2eS3WPFCTnMqVxwUcvgGboamHRIK5YkC5wR1Aynfboef025ot+NwnErWa3BPGgKeL6jm7/nNMwcDweOJ6OxESZMvgcx+LBEqAxgWb0OBCS4nIm+ADiqhhbMrbk4kSKBRCELHKBXHWskIwRkhNOQ4QhztzPmiiYe1ujOG2t+30Jsjp0fGwUISFByelIJKE5g0a6IHR+nmm6LZSHGh4KUooX+wDBCemkOI148QxpKIG7nlu1nEo0VWq51p2LAuICx5iJMSPP9vjuCnwoqjgToM2JXEJwK1fGPT6ZNBy5vr7i5uZAOr7D9zv2HUge0Ny6+mTGziQ1VYzIAzgbGfIN5NcgB1ROZDnhQnnhrBnxddVT6/0zvx5pa6e97iwyjkF6svdkIkn2JL8H14M6hpiQEGYRWS22ZJqHN+5HcBwe+xxWksl6JEfFMbC76hEH6e0NDqUb11PcGg4KMrpCFwYFXQ/hClLHSTryCXb9jpg6TrGJZLIaNTFMEKmB+/rDZzyDBsR58JnPbiLHzoPrwHc4F84vfzIWi53N6RjLBO9fPfY5rCYEz3B6RYyRzl8zDNAxsOt7Tke43sHZ7PvM55ELExaKI4qj4yM4XRH330J332LYHTm8A+09UYoUXc0mpTpKAyUtnOWC4F2V4IQcB652HeL2uN11WU783JPqW52M1+xioSBiSeD7Ev7sX//zxz6HlThEPIIv/W/FcTolPtorH/vfcL2b6pbOhsIDjYumt8iO8Oyb/ME/+SOeH75H6AZ4M8D1R4wrAtv4dEwBCjAtLFlDLq/3+jN4/gzynhv5Bnz9O5QueS0mu8ulM2frQwh/+W++/9jn8KC0OthaPUW9bpcHH9DPkPbKAvCCr/3jPwS9AY1M3RLv+KOz8XmJSBizWOUncCU7kD3QnS9xb/m1s8lF476E68c+g98688XlD/eq59fnHqQH+fjhDnAh5zlLE8UlbDX/axhfGiYSw1jARGIYC5hIDGMBE4lhLGAiMYwFTCSGsYCJxDAWMJEYxgImEsNYwERiGAuYSAxjAROJYSwQ0JePfQ7GFskvIb9kl9+gWnZCKf0lSqPAuxde1uYUrZ3SRpa1BNL/fexzMLZIfgmH/803w0t+Hg9o30NtxhEzhLp8urUWK+0F2mpIV+9ou8g8bcL//OFfP/Y5GBtkl9/yifyKX//0J/ShNNcY4pHOC50XvIM01PauUBectQVi22pFEcJP/8tjn4OxQTKZTxkQTfRdh+YBTRkVIWZlyNC1hmNnflfr3rIdwov8q8c+B2ODZByu3zNEZTjd4ETpu4ATRXPGh2o44Kzt2VmDdt2GNQmXdg0xvpo44Hh4i/jSXtU5RxBHHIYSdThHSjOLcdbWdRviaATZiJqNJ4YowSn9LhCHiOZETqkE6wKHm0zX8TuxvH7DHRyNx0QVggfyQI657ArjBQm+9ELWI5NCphbd722TsoFrdNjAORpPEJXS1T5pxgnsuuJeHW4Su13pg1ae2LZ9mPZM2dqYC9Hm3I0VyOyndLYvHknfU7fonjc5UzZjNu4gXLJHhvHV5s49iEYPqwqjqYjZrOK5F/bkCX4jJ2o8TaaJwlv3ytyCnLO1bTrD1k7YeDqMAmm/bwvljr0at2hKApvdx914XOqeK7MphOa6jx383xMIvF94/vSFYmG7sQodtwMqzcHnse1oYd4rR6l36nsPPmlCdlvdfdd4VHQukjbX9v4GdEiLQWR8oO06tpWkkVkSYx1jMPuB7tIGS1PCRsRsPDXG9SDt9mzQy+3nzf+jm6vhChs5T+NJ8jmD53PH1DYHm7lbhrGAicQwFjCRGMYCJhLDWMBEYhgLmEgMYwETiWEsYCIxjAVMJIaxgInEMBYwkRjGAiYSw1jARGIYC5hIDGMBE4lhLGAiMYwFTCSGsYCJxDAWMJEYxgImEsNYwERiGAuYSAxjAROJYSxgIjGMBUwkhrGAicQwFjCRGMYCJhLDWMBEYhgLmEgMYwETiWEsYCIxjAVMJIaxgInEMBYwkRjGAiYSw1jARGIYC5hIDGMB+ez1m23uG2wYXxJ/D6hoFYdbUh3zAAAAAElFTkSuQmCC;" vertex="1" parent="1">
          <mxGeometry x="373.13" y="80" width="100.5" height="100" as="geometry" />
        </mxCell>
        <mxCell id="zjVueI3nGS8uGwPDVi_S-36" value="Logix Health" style="text;html=1;strokeColor=none;fillColor=none;align=center;verticalAlign=middle;whiteSpace=wrap;rounded=0;fontStyle=1" vertex="1" parent="1">
          <mxGeometry x="40" y="10" width="89.62" height="30" as="geometry" />
        </mxCell>
        <mxCell id="zjVueI3nGS8uGwPDVi_S-37" value="Azure" style="text;html=1;strokeColor=none;fillColor=none;align=center;verticalAlign=middle;whiteSpace=wrap;rounded=0;fontStyle=1" vertex="1" parent="1">
          <mxGeometry x="33" y="330" width="59.62" height="30" as="geometry" />
        </mxCell>
        <mxCell id="zjVueI3nGS8uGwPDVi_S-46" style="edgeStyle=orthogonalEdgeStyle;rounded=0;orthogonalLoop=1;jettySize=auto;html=1;entryX=0.75;entryY=0;entryDx=0;entryDy=0;" edge="1" parent="1" source="zjVueI3nGS8uGwPDVi_S-38" target="zjVueI3nGS8uGwPDVi_S-6">
          <mxGeometry relative="1" as="geometry">
            <Array as="points">
              <mxPoint x="425" y="680" />
              <mxPoint x="310" y="680" />
            </Array>
          </mxGeometry>
        </mxCell>
        <mxCell id="zjVueI3nGS8uGwPDVi_S-38" value="Proxy" style="aspect=fixed;html=1;points=[];align=center;image;fontSize=12;image=img/lib/azure2/other/API_Proxy.svg;dashed=1;" vertex="1" parent="1">
          <mxGeometry x="391.37" y="602" width="68" height="38" as="geometry" />
        </mxCell>
        <mxCell id="zjVueI3nGS8uGwPDVi_S-41" style="edgeStyle=orthogonalEdgeStyle;rounded=0;orthogonalLoop=1;jettySize=auto;html=1;" edge="1" parent="1" target="zjVueI3nGS8uGwPDVi_S-11">
          <mxGeometry relative="1" as="geometry">
            <mxPoint x="390" y="620" as="sourcePoint" />
            <Array as="points">
              <mxPoint x="390" y="621" />
            </Array>
          </mxGeometry>
        </mxCell>
        <mxCell id="zjVueI3nGS8uGwPDVi_S-45" value="Fetch Token" style="edgeLabel;html=1;align=center;verticalAlign=middle;resizable=0;points=[];" vertex="1" connectable="0" parent="zjVueI3nGS8uGwPDVi_S-41">
          <mxGeometry x="0.1501" relative="1" as="geometry">
            <mxPoint as="offset" />
          </mxGeometry>
        </mxCell>
        <mxCell id="zjVueI3nGS8uGwPDVi_S-47" value="FHIR Request" style="text;html=1;strokeColor=none;fillColor=none;align=center;verticalAlign=middle;whiteSpace=wrap;rounded=0;" vertex="1" parent="1">
          <mxGeometry x="250" y="730" width="60" height="30" as="geometry" />
        </mxCell>
        <mxCell id="zjVueI3nGS8uGwPDVi_S-49" value="Data Not &lt;br&gt;Found" style="text;html=1;strokeColor=none;fillColor=none;align=center;verticalAlign=middle;whiteSpace=wrap;rounded=0;" vertex="1" parent="1">
          <mxGeometry x="404" y="561" width="95" height="30" as="geometry" />
        </mxCell>
        <mxCell id="zjVueI3nGS8uGwPDVi_S-50" value="Blob Storage" style="verticalLabelPosition=bottom;html=1;verticalAlign=top;align=center;strokeColor=none;fillColor=#00BEF2;shape=mxgraph.azure.storage_blob;dashed=1;" vertex="1" parent="1">
          <mxGeometry x="605.19" y="630" width="50" height="45" as="geometry" />
        </mxCell>
        <mxCell id="zjVueI3nGS8uGwPDVi_S-52" value="" style="shape=image;verticalLabelPosition=bottom;labelBackgroundColor=default;verticalAlign=top;aspect=fixed;imageAspect=0;image=data:image/png,iVBORw0KGgoAAAANSUhEUgAAAMkAAADJCAYAAACJxhYFAAAgAElEQVR4nOy9d5xlR3Xv+11VtcMJ3T15RqOccxhJlpCEhIQRIAEiythkMHpguDbBvtjY4AcO1za+zw+wr7F9uWAexsZghDFJQiAhgUDRKOeAwkgz0oROJ+xQVe+P2if0aERjCdTDZ/avP+fTfc7Zvc8+teu3Uq21Smbm5j01atR4Ugiv+nhNkho1ngQzn34LaqkvokaNXR01SWrUWAQ1SWrUWAQ1SWrUWAQ1SWrUWAQ1SWrUWAQ1SWrUWAQ1SWrUWAQ1SWrUWAQ1SWrUWAQ1SWrUWAQ1SWrUWAQ1SWrUWAQ1SWrUWAQ1SWrUWAQ1SWrUWAQ1SWrUWAQ1SWrUWAQ1SWrUWAQ1SWrUWAQ1SWrUWAQ1SWrUWAQ1SWrUWAQ1SWrUWAQ1SWrUWAQ1SWrUWAQ1SWrUWAQ1SWrUWAQ1SWrUWAQ1SWrUWARmqS9gV4EAePAyeMWF1xBA8Eg4oHrdo6r3fPXYHSHVA544DgvfkwXvD8aTnbz+xE8Yf39wtmcSNUmq8VY2/LaiQBxCifKgiEA0hXUgHhN5nHN4K+BBFOyuJPHIYADAlwhuh9cFlIJ+FxVrtIKyLHEO4tYEebdHHGmybpe42SDPc3QUY/OMqNmkyHJEdvxMtYOQcj/377l7k2SgPgh2px9Kv5F8KytyoGMQS1nMgfegU6Iooch7yDMs2XYdjGuLkR4YH0eKkmhiEp93ybsdmu02TjT9XgYesn6fpNnCeg/K4EShm22KogCl8N4v0C+CrzXJMwrvQTziPcObKhDEl8YBEqX4AhATpKIzgVHOU/Rz0AOJtjtCqrEK8l0Nx0FwUo2nUhS9Hkoccdqg389xYWDRrQlsnpE5D0qDK/A6xWYZiAYBLx6PgyFZFpppz4QO371JAozsZRbIq8FDlMHr6h1nEW+JlOCVoygtYndPUytgQBKHVOZWmMYqaF8USiu8dcRKEO8ovSVJW+RisJ0OaEGJwuUFRDFkBSQNKMtwDlfZweKCTKMiiAe/oy32c0JNkkoaedm5Z+GKPEi1sgCfEZfzaJcTJ228isi9wsnuHSQUPJqRT+JEYQEvCldYIi2U3Q6CpxGnlEUfZVIkMRhbUOQ9Go02uS3wJsJ15qHRAOuGnzCKqDzzQqkmCYCA8+OWrw/q3XsQi1HgbMbh+6/j4NX7Qn8WpSL6uQUT1yTxDo1FvMcLOBRODA6F0QpxJRqL1hrrhb6FQiVcc92PaDcaHLbhCDpZwY233UmBxiQNrM1Bgk+yY9TMA0/w6H+OqEmCGg768FZ4j/YO5R1F1kdpRTvyvOw5J/KW8w5mgtHALXRdd08ILAiIu+rhAUsYK1M9L6r3OsAFv3kn55z3SuYzi9MJL33+c/jIx/+WLMsRnYRIo1JjjvrgHu0Yev75oibJIPYug7+D5FIVUdJWis962O4sk8ayHEgdRJXZrXZ3hgBB81a+QxX+dWNutrclypWINjhl6FqINJxy1IFcdek3Oe7k09l7n7258robOGCvtdy38TEk1sz1clQc4aiIIiPHffCxzwR2c5IIQ2/wSQa/KHIi5TEKxOZEQCpjk8JrdltdIjt7smNYuBpirUEF4lhfaRxRWOfw3jM9PU2n06HZbOKcozs3R9KaJPc//3WQxbB7G9OML5UMbN/qJnvBo7CisaJxoseiKTsaFbs7BouHKvgRjEbGOdDGhNddCJJEBvrAdTfeylkvPI/7HnmcR7bNcfixJ3LDbXcz3y9YuXY9vX420iIwiq48w0kOu7UmEXylwf2YrQvBT9FYFKWoQBCVk0sabGpRCPGCuP3uilHCSFhjGicIhKWlwRFFaSEeiZeHH5/lo//nX9jn0GO5ddMdXHvDF0kn1iBZweMzXUjalRkcAimjhJQFIZafO3Zrkgww8ERGfwCocINEY8VRSkQpEZbgjFarKJXDurtqk5+cazA0vHygTmQ0eZUfZwCTNnl0W48Hb7gdJwYbtyl0ilcCziFxii+y6mx++HuUZ1evkzwDkJDm4GXkl3hBfKVhqmMgrIW4sZsyMsx2Z5NrzP/wHkSGgmP4rndgc1CCiMKIJq/es9YhaROrG5RFiWm1yaZnYHIS8hzf71UZDSEzIpDtmcduThIYuWXjksqjcNU9CSRQhJCwAvTwf0c6ZfdFNW5D526h0453YaL7MFZ+LCJY2JLSOkpKiCPKuVlk2SQ+yyDSiErweQY7pKX44Ur/M4PdnCQDOsC4R6i8Q3uLr/K6FA7jciKfEQPKOVB5dXyMH6PN7oSFejW8MvBJBq+KUkEDuPCO16ORNsYQFY5CLAKUseA706A1FOCzPpIkTzBn/YAoz1AW8G4d3Rre0B2cQy8eN5amMnDjtbfVgNkgIRn+826JHXPddlZR4qxjGP3SEVpGIeBBmr13liLrId6iI1Nl2XuiVmunBHmmsZtrEsYIYsNvFFYYrvR6qnTt6l5ZAGVgzPLefWkyDo8Ms7cGJqkP6yNQmVxh1FKBjGDEll7htAmJpEjIEK5IV5QOQbPzoqtnLg5ck0RGK+zgcdWqrh2keqPGkusGt0aqm1djZxiFaR1U6xwymNjeo2TwrBJCP8GgWRiaXxrs1uZWjRo/DWqS1KixCGqS1KixCGqS1KixCGqS1KixCGqS1KixCGqS1KixCGqS1KixCGqS1KixCGqS1KixCGqS1KixCGqS1KixCGqS1KixCHaBLOCFadCLH/fEI59ejcF4+jUh41fGiklkUOLzDLfo+Cnx043eT7run1WG7SBfV8afsvDpaFeSn+Un/7yxxCQZu3k7Nh5b0KFvUKUzam49KuVUT3mwR+0yw3lC0VWoexh2LfeuqpJwC+rhfmpu/xyxM9o+8XLGjtqxRlx2EBBP4QqGwqMaO7Wg7dKoGGtwcQt6bfyCYIlJMj5kO9aK7/C3+CFXfratfBZ24VhYiDog5IAgu+btHR/BHSsDF4zTTpvJPXWM6kbGHguGaFQNsmMToNAk4hej08wuYG6NmsENnz6BMNUNqNoBhp/x/38aH+0t4FDeojy4qphqWGNX8VOe0Lh518LOrmx8jMYJM37s02uJNE6QHd/yw4K2YVeaYcnaT7rqXQ+7AEkGqLSDH/wNT04AGd7up7WNy/BGhk4oo5s56D0bdEhoJzQo592xJ8jSQXb4vTP4HX6Pvy6MpvBTh2Kn92tY2Slj1NhB9zyDHU+eDpaUJFKVzS5Uxwss/zHsKIVGrz1VieQrEoDgJZTpOtFVOamqbrSiBKwYrETD7oMiu0IzIR/6Wu2MttUkfTINMu45PPV+I6PPULLwXLoKnJaM36HgP1oGXRzVE+7orohdSJP8NNiZN/Izkut+cP6qrn0oplXYb4ORJtl1MJiWIyd5wVs7+CA7G6WnM3r/lbHYmbe5q43mk2FJSeKRsAfFkwzhjkc/2Vmenm3roTK1Rp+7syBzmJAVhUYdHpdUEA6uZoepLjt+hx39uxGe/kLZKHIW2mMMzhi6zxjRw82+q+190Bg0oLz7hSDKLqxJforBkyf88TQ+Y9x6r0KaIqG7Bw6FRVOiGTjxT/ezfxYQhltE78Sk2snRLIw17RiN+q9//PA8T9BJI1N4dFjwARd6K7s+lpwkgsMYQ1HkKKVQSlHmOWiNiFTbgT2Jdhk4+U9zno6Hd5V3uMFCiAeUoMqMZqxQrgixL5tV7dIF0GMT9ZmFByyC86PWoWXVVVRgweuy4DE2nk9z7BaGzIVhW2Uf+mV5FHlZEpnQV0ujh0aiqCWffj8VdonFxCIPrcqcdbjCEaUpUWTozs+j9GiTnCc23l9wmqeAEMHyaJx4xMsOERcPZdispygKrK06OOrg5Pu8QJKlHcLx2BKES7MukGPnBIGFkv+ps2Tc0BVZeG8GRHTeY4zBeo93Dq318Jhe1geaT/nznyks+WKix4PWxEmMd46in1H0ehRdX3UUh4UBy+qvYXjmaUhxUYABCRuLhvs6GBIXHA8TIaIos3mcTigAckiSCEmjp/7ZPwMIHm9LokqQWOswWmMUeBdMRqXGxnAYCRsjiRh+NibjzkMASoSsLDHGYLTBljm5i5EYJibasG3pd7JaDLuAvhMQTd7LoSxQjQb4GJf1abRa9Hq96rgn8QP8Ds//q5+94DxDQ4BhMNOWWO0orccrHTbKNHEgiwfz9C2WpwEfrD5fAoLYEiRClELUQEuMjVvlY1VPhud4qnhilHHclBsRUUnQeNbmaPGkcdjpan5uFmg/5c9/prDkmgSvQEWgIxCDsxL6x5qYXqcPkRnbKyT8z4LV9qe1ICUM9r3QYlF+fE3YVY2zPUmkaUiK8xWFdNUTmNDzdmkj/S7sMa80KtJg7dBfKq1DKTXWpXW0e8jQgPWDlZ+ngnEhM2iMPbhfIboleGKtAUe/36PZbACBNJOtJkzv+s77kvskSaLIOrOghEaa0u91kMIz0WzQ7+VQLIyQjG9XvPD3U/l0Kp44jC8q408P33UiYCKyma00TEHk8xC6rP536ReMq8CBqYIIosicxVTbSZSVuToetxu/ZqmCtk/nawyMLCVh3Ab9rnU1tQZtyJ0XTGuKEpgtIItgezfHS+NpfPozgyUlifEFdvtm9phs0e/30H2hhcMVOc08RffmSOOYhSYDC0ysp5Pa4AEnIRXFuJIFKSnVe1oazBYzLE8NbXrEHiIKwGCtQ5mla5ztEbJSUMYgApkFFSu6DqwKZB6seI/vGTLA03PbR+cbrNbA+Ip7QF69pyqz1AI+gu1A2VpHOdN9mlfw88eSkkR5y8p2zEc++F6OPiSh7EOaQJlDEgcrYkfLeUFoXp7mMqKM3VT/BAseJ2AFjAZTwuoUYnHhArWg9U4W8p5hmEjTL8OOtqKh6+DPPvpZLrvmJohbVeqNXkD+0bj9LHIIwjlVFap3lZ5VVSZA6SGKIqwtKYucWCusTpllgsfnC+wvQHf+Jc/dyrMue65M2DuCJKqGPK6kXDyauIO4zLgP4Hf4/VQwTr4dSTL+voqpTC0FJmV8f5KlhAIaZnT9uYJNszkP9FN6xWiHYO/DnirKj3wtL1Klq/8MMIoFA4L4gaYfvKmBBuLDBkml9AN5l95mXRRLHt0SPNpDQoiYC6PF7sFyWZBQejjUjC8wLskY7xrSb3zzNTWWEFJKRE836ek2UIb1HyLwCu0tiMOqMfHgd/2JupSoa9xr1FgENUlq1FgENUlq1FgENUlq1FgENUlq1FgENUlq1FgENUlq1FgENUlq1FgENUlq1FgENUlq1FgENUlq1FgENUlq1FgENUlq1FgENUlq1FgENUlq1FgENUlq1FgENUlq1FgENUlq1FgENUlq1FgENUlq1FgENUlq1FgENUlq1FgENUlq1FgENUlq1FgENUlq1FgENUlq1FgENUlq1FgENUlq1FgENUlq1FgES74dXNg3Y8dXHZ6we9P49mXD/V3rJujA+C7po/0JRzviDrbWMWO7Gfpqb5Kx7Xt2/d3YlhxLShIvgsVgxzbTwRfgwUnYBkaFHUGQ4Q4lMnzG8Nnue6eDMHGEPa0iHGGHrvC6BqJqX0hbCZ/qf/xgA6LBuNZ4MiytJtlh51wZ7kcCEI0OgdH2yqKoVckAgy16BkQZaZeR4AhjJd6isJUWeaL2rvHkWPKdrrS3aD9wjkY7wY7vIyXjEs+HHXPV2DTwuylpFu70FTYWGhhS4oP2CFrEoSkqkjBGFDU0a2s8OZZ8912FQw1IMjKoRzcb2Lk5sFBe7q4IhAh/D/ZL196hvUV5WxlYQfh4fLVPpODF4/G1pfVTYIk1CSjvdgixjXTHwi07F9Jm/NXdFcP97Z0HKVFEaAHtLcaXaG/xMthluPLsRFUm69io10T5iVhyTSJBrjHYhxw0+BFJhjb3cDNFtcC8Gm6tuDtDKvNph92IBY/4sIGoR/Ciwha9436drx33xbDkmmR4Iyu6KImG7vvCGx6IsjDGVb23m6qTQUzLCxg0BWHf9EIinATSDLkwJEbYQzj87XZ22ho7YElJ4lBkKqWrFfNAASgk7J9OIMPAMBjwYBD7Gtz/3dnttASSOMKNLIEO0NeNQBT0SOuO266+Dv3+V7CkJClUTC9dw1/9y/c5ZN0k5PNEJpgDvdKjtUZjET9YMhOshCiO8q7SPbvvzfYilKigSYs+Jk6ZyRUPbO/TLRWkBrxF4RHvwAtOSgCUD+LGiWZ3jQ7+tFhiTaLp5Z5Lr7uNy/vT+GyeOElwHjLrSeIYm/dQBHPMo4Yk0YPFsd3YKfEIXiniSOOyDs4LujFFt9SgY1SU4PIe+BENlB+E3kcLi353tVd/Siyx4w5EEf0sR5eOJG7iooi8sOTe4awQRSmucj4dGis6mFmuxOOxSuF2U0noRShtiVUxKtYURYm3GmcSUAqXF4wyFDSDNCCpQu+7q3D5r2LpSeIcaENkWjhbMJ9bREWYZgTOUbocweFQONFYDILHS5CDJaZySndTRBF5USBe0FGKFRM8eaXDwklhq8SGwcKhDsKlMlVrLbI4lp4kRoN35Nbh8jIIt9RgUZBlmFgjUhFENOEmg/NBCnoxVUhzN4T3GKMoywzlHRpNaR3YDLQDrYPPNkhqFA1iAI8drMjX2mRRLC1JBLAl2BKvIWo2saKDneyBOMZRhsMGeV4SXHjrB+vtvorW7I7wlJ0uAMrEiNIYpXGRDiZoWQwDG17Gs4XHHzUWwxInOHrQKpgGrqAsPd7bsIJsIlQUQRGiMaOFkWEcM0wAP7j5ux88gm5MBmFhc/p5Ht7QBGHiLErsMGfayTg5MhQOj6nMsBpPhiXWJB7yXjC5AO89aA2RBmtxeTGWtgchC3iQb6Txvrq5MjjdzqXjeIZXSOoTvIw0kewoVf3CtI1RdnJVsyGDYzyq0mKusvm9DPKpHKrKJliYVDjuA4xfV3hd7XA9C5N2/PC7DCa2zXvD7650DFrjrAPvUSYCa6vzhkDHOCG8SLXiTjDFxsfZjxcjjI9HFRPzVTKqDF7Ro6yI8UWZoWBbsFATQtLVStiuHoJeYhHiQXt0HMKQSmkiJZB10NqDOIw22H5BGsXgLNgiSEkb4X2KV3E1OTVOGRwgShCtQz2KFmyREUc6WGraBHLpBO91iJqJxykXHjKIpEU4n+B9Aj4ECwSLFxuOl6DaQhazAzReYpAELxEgiHdoX2J8WZFFcKJxYsKkqsKvYXXchAcSJvwwxB3edyIVAQfEC1GqmC4JHZRYPA5vK82LxjnBStAUyrtqbcQHQqgUL3EIgIgFpUCZoNUlCAAZLOeKAUlBGkAMXqM9RM6hygytqhIGR8WpkKmNACYK98sTBKAKPqTRHl/0+UVY9V96x10UtrDgDc46Yg2iPL67nVYch+Bl7MhmNpPGCSaO6fQ6pK2V9Aq7sM7EB2nlPIgE/6UsLSZNybI+znowUt10AWMC8YBxSenxo3SO6kcqLeZkPK3DV/lSYfIjaugzOQky0nsHErII3MCn8oTJOVCKFeGqJ5XMrfKthjltDu8FJ4L4Kg8Lj/eBPLaS9kNtKmFsvQ9FbUOtNb7a7scSfPzYZPXjQfVKq8iAAWOvU61lKUNpw/fXUhBR4MsskLmEoihIkgRbaPICiGLECHGcUvhdW4vAUudueQGn8MqAJGA8/c4066di9lnTZMOxR5AsmyBpNpneup3bbrmV226/g1baZrbbY9nESjr9gtKBkigQbjBxPAQp6EnTJn1rEfEooyidBdvHO4fBhWCoCkVe+KKS4EWQiHictyjv8F4DMaAqSQ+FqkLQamD6VZNKOayv0tJRY2FqVx0z8LV09frAjJLhKviCMlsCAZ2XIak8hkK3R+97oLouP9QCEV40pdcMTEbl+kS+wKPIpQkoYtsfFmU5UZRiCJqyBAo8WTD9JJhVpfdoL2TzPdApNNsgoLqzJG6WNU1hZTvm8EMO5pBDDmG/Aw/ie9fcyBe/9QO29nvkromYGP+ELL1dD0tbvotCqQicJUksxfw2nnfScbzt9edyzL5wxwNw32Nb2DK9ndNOO5l3v+nZ3P8wfOlLX+aKq67ij/7Hb3HBe/4kEMzbKoJT2dCiwmR1MD/fRSmFdxaNH5kdw8cg+xiUL0EcXtwoxdi7SjiPEgQ9VRq6jCJu4CqJHM4/WNFmkH07mMgLfKDB/1nUIII3WPwTqvdkZNvLgAyOQfbv8DSVVq2oXbkBA9+gKtf1NvhK3o2+N4L4QHxkuA6Pk9FHC+H/3JhfZlFMrVzDzGwXrIO8j9GGl734Zbz1/BM5YBlEHhIJiZc3X5dj+z0ajbXkukmRZSEFYJiRt2tiic0thZMEymka2f38/htfydvOP5VN0/AHf/FVLrvuJmb6GY12k35/hsP2Wc8H/9vb+MN3vZzum16CbkNbFRQuwXpfWSsDcyhI3mSiSbZ9O7rdpHB9nHOBLBqsgB3UVng/cJEIOU4wLsXV0DTxoPywRFyqyempfCXvhxMKwnRzGMJkrLSGt8Gx9w5bHRG5gpCXG2HRleYJPo3gsZXfFc7hMZSIc6Os6CHBAmm0Bx9yhMNXGwsBWzFYFY2+N0KmUoQY7UMFo/IloKrjBhnDDvE2WGeVrzOzbZrGxBT9vA8adGOKC7/1Ax548GHe+vLn8tLjJ0mqqzLG0FctumVMUP8RuzpBYMkdd8CXxKrgtS88hXeefyquDx/72Ce56IqrmPENMtUk8wk+muT2+zfxnj/4Y665cQtrJwyrNMRG45XCeYIpMh6J8T5IKzyF86AjRGtE6XB8cF6GGiNI2CBVZVCc4RXiFT7oIMKLduiYiq/W7bxHOVdVBXqUA1WdC68YFntUJFReEXrBDCI9wwGpDK3Ra8NV8QXZuyPzbKDjlK/+t3L8NSXal6ixyBxD888E0kkIkCDBz7GisVWavR/XXpUGFSTkf7lAGJMayqKLkhLRMF865nzEVbfey/v/5C+Y7o1EjbUFTmmIYohNpUV2bVMLlpokUkKU045zfvWFZxJZ2J7DxdfdQNFcTqYaqDilKD3YBIlX8kjZ4vf+6v/QLaDwoKIWXie4Qb32YAXeO8TluO4c7WVTMN8B6yidgI7wOgIdjZlKYSINQrnKC+LCA6+C9B1MKizjqeZCcKYDKcLxDDuSqDAXnBs+lHNhbvqQzYwIhSTkklY5Vh5F0DZWRdhBxEwkNHTwFouhUClOtXGqRSlJFcmSigZ2aFYOws8jk29AWB/ugeQgfZAcrxxWKUplQhWjdyG44X1FdoNyitQWNGyPVlSC7WBthhuYeFFMEafMecU9m2YZxLAcBc7OgZtDpAt2nlqTLALBomyHA/ZexZEHrSLScPcDG+l5Ta6T4NR7jUJTWCGzGp8uY+N0waf+9Ur6As40cZWTOZKwltj1SV2Xww/Yg9N/6WiiVoqKDN6WWGtxnhDuHEh6INxKGySrf+KKxoLFuEGwiBBxckL1GDxXFeHCUQqLohg2ZBi093GisISwsBtK8dFaztC/qszCQYXhqMpw9HCD/6toMgg3OzFBeAy17FgVzlCTlggFw5CsaMCMfJqhFtKEBchAuCzLQIGOo2q9y4OzWMCKUMLwoTSksQLXQ4p5hGKBxtxVsaQkUd4R2z6HH7QfPaALrFu7J7FJKb2DWKO8Ju9bMAadJti8JE4n+cK3r2YrUJrGKF2+yIhjheRzTEqHSTfDO37tJZxx3CHofA7Xm6WZGCjzaj0gglJBOfJQtS6xtgNS4ijxvsTECm+7RDHgS7SOIXcop/EebGTwkcEpcFpw3mGjCKtVWHfRDqTAGIuSAut6iLZYcTidMnQNPXhlsF5hVYInhKh1pIMkd4BVeBWjtAFXhjwtV0CREUURrnRYMZQ6oVANLEn4fjoORDGVh2CrkG7UgMKBtSRGhcVdqdZSxIBKoHCIrtY3kgYlhr5LyKIp+qpJQRxM3SwDHEQKyj6xOHqz24gG39C5EKJ2FuMLEjUo3d61sbSaxAOlhcISETptHbQGzjr+aNquC51p0iQiaTZCqWqegdJ0C8eD010+8vc/okDhtm9jYqIJviDftonU94j7W3nNOafz4pOnYPZRlifQjoRsfjtpGkGRQb+HEoUxMSpu4LIMW3RZMRETuR6pz0mkhLyD1paiMwsItixJjCGyBVEEFD18Pk+sLWRzoEoUJeR90ApvLc6V5FkfxBFFhjzLiJMkTH4VSpONFigykiRCXIm4oHns3BaUz8BlNKda0J3D5V0in9FknqafJaKPKXukEYgvwyQvQ3TPLFsRcuSyXmXyWcCSGIHOPChNmqQU/Ywk0uiij/E5FN3gz2iFL3PAU3Q7EEVgIqx1aB3RTBKisk8zBkUBs9tIxCNlTiwDXUoQSqYBkuAceOt+EVySpY9uJfEkjz70GDGQWjAW/vr3X4f98Ge5/LaH2Dz/OKQtJE7QOqIsCkpniZZN8YWv/Qe6vQKaKXNbNrFm1Qp6nQ4T0uP1Zz+X917wImJgfcvTeewBzNRaVjQbzPTnSNsryXKHz3sQpbj5AtoTxHnG3OaHWbN8JTPTW4kbTXrWImlC2WzSlwbkFop5EkqybkFKtQjasyxPU7p5hpMGfSXYIgcPk8tWMrt9G2XhabVSvFdknS7oYNKkRtGfnabVbKKKWWyvw0S7gWDJyj4az3zWQ+ZLVkylzM/M0DaeNJ/GiGeu1IhvUZSOKGnT9xoXR0gUUW7dDFJikhglBV5yYp8j3TnaaYu8LJibzmi3W2jXx5VdErpYhMIVZEpTOAGvIdFQdjDtScpeh8j2cXPTLIuhnJ/GRG1Mq0WvM09DKxLCypIFcp8wX6SgWuAUoWC7Xkz8ifAosqzkxw9uZnsP4ggaEcQO/u5Dr+erP9jIP3ztIq66/R5UPEXhDUgMAjO9HqbZJM+DmdGI22zd/Chr16zmdy54C69/9moSD5HAqnbEeec8j1laZKVluldy7W334AnOsIkEp0B6W1gzIZx08plsOO5kNpywDitBIN9xd4cfXv+fXPT9a3EiKOptsKMAAB1jSURBVCkxCg4/9FBe8Nwz0GWHbY89ghaPlYiepKzY60C2dks+80+fZ3bLdqI0RXvLRJKy56pVPLzxYbzyWO/IsoJfOvlkzj7tROa3bsb2ZtFGI2mTrdMz/MdXvszK2DCZ5Bx/wrEce+Kp7LfXBOuaMNGCuRy2bIObf/Qj/u0r32BT1mGmp/BFAlpYvmyS7Y9vItIRE5Fw/CHreNZxx3DUMcfzsb/9JA88Nk2v6HLW6afwKy8/i+XNoOAuuvxmPv35C8njFp28RInCln3iXpfVacyrX/wijj/iUPbfK2Q6bNwGl15xI9++5Fv46S2UWTEMcTinsKWFxKB0jCvtmM+z62IXaJitmc0KPvGvl/O+Nz0Hl0PTwHKBX3n2nrzk9F/nhofm+LsvfotvXXULNkro27iKpggmTSm6XbSyNJtNXvzil3DkEavp5TAZ+MSRhx3C69YfwqxA2oKb73Jcc+tfhbwio+n351itZzn2oNV84Ld/k3Xr4HPf2MwH/+LrbHp8G6umUn71Rafxl+88nfdfcDp//rF/5+If3kTHGR7ZuJEtDz/IBb96MutaBzGI/HeAj3/+Nm64+T7Kfo4yCRqFsTnveONrWbsi4X2/+wd4rcidJl6+N3c9+CgHrbmDd/zqqRy4HDLgC1c8xsXfvpR2GvFrL30h73rd6cyX8LHPXc9n/r9roOhgFBx//Am89bVnceb5G3j7+Rt454c+xxU338+MaJJmi+2PPcqKiSZ/+efv4/h9YQ9gguBQX73fFL3HH+J3//SPaS2Du+/cxF5Hr2PfVXDYq44mKWb4289/jYZuImiaSc75Zx3Ff3/7y4iAnoevXXQH9z7wMKVEnH7qabzj9cfyyY9dSNpokVlAQ6yhrQv6kuGtxfpBVsGuDc0R53xoqT48hOFDFOem225n/0OOZ/+90+CH9ro0YyGyBeuXNznjlCM494Vn4nol9915O+IsSGUGSFXn7Rw33HgL3/j3b7LhwH04YO+VKOCbl13Nez/8Mf79W9fwr//2Hb59+fcgboUbZDTS38p5J+zLx/7vt7NmCv72Mz/g01/8Onc9tImehU2bH+U/r/oee63ZjxMPWsGpGw5jLtfceue9dHsF9951FzdffT2veNGpNAg+8YVf/xGf/MznuP/RLUiUorRGbEbD9fid33guR+0Nl3/7amZ6GT6doF9EZP2MbQ/dxaP33stLzjyOr3z9Ov78b/43M50ezzvzdN53wS8TAf/2pe/x6S9+ncfmCjqlMJc5br/zHrZs3MyrnnMUTWDP/Y/gku9+n67TZHlJI9HgSq699hauv/ImnnvMYaxtRSjg3vs38uKXv4qb7ryH//E//57v//CH3PSjm3nxuc8iB+68bxvX3HA7IgbX7/D+d7yJ9776NCaAOx4ueOfv/AVf/84V3PvwZm67534u/vZ3uP66+/jtd72OfdZO0ozDivsPb7iXH929kb5X2LLAJHEV49t18f6XbVhax92JUGroxQ22yXJ+808+wd985XZmY1ATIbSrTYLKC9YCx03AR95yGl/9+Pt5/tH70yoztDLghL4VCiJc1KJHjI1aWKAPdErFdObpWo2PG6ikiTcJ4Ii6mzn9kHX8z/f9OisiuPZe+NSXv8Vs3qMxGeF0H91u4KbW88l/+Q/aAge24Ddf+WzWtzW0ppiNl3Hbxse49Kof07UhuLPX3mvJi3miRKGMx9ouynV47ilHctAkrAXOPeMYrI7o+hSSJhQlM31Hl5RtwOf/4+Jqzcdy6OFHkBO0y4/ueRinE1TcpONSbHMNeTzFjbffSycLy35H7GvYc91qxFm0MRSlo5CYR+ZKrrzlx1x81S10CV7B0SdsoKsj/vHCr/F4oZhRbW58eJYL/vBC/vwfb+ATX7iMvp4CiTn/3HM4/+yDaQFzPXjXH3+cH211bE/X8ohv85ia5DHaXPfjzXz4o58lTkd5vg5L35aBGMojepC8s2tjiRcTwy+nND5q0tEt/vJTX+S8t/8VX776QTZZmANcHEFpaXnLhLNsWG/4uw+/lre87GxMfwadRjgvlF6hoghRClvF6h1QiqE1uQxEk2U5Wht8lXY/Rcb73/56VsWgHHzviitQCiLfJ7WzNMoZomKG3vwsnU6Hfjesv+27DM561glkeU6uImZcxEXfvwalg7m19/o1TLVTnC3J84w0idC+4MxTNhADDeClzz+DOBp0p7SoZorYjIMOPJA7fgx3b9xGjwQXtbnw69/m+h/Dl773GN+74S7mC0cJEKd0Z+YQHVNYR96v0rqA/ffZG60NNisgSinFkOcOnbR46NFtw2W8ow5bwz998d95vFMgSZNCJ8z6lB/c/hD/9LXLeWS2wElMquFdb34OywhBuW9edh13P96hFy+jH7UoCrBRk2TZajoWrr/5djZuCfdBA0pVdTxxAlqTZ/kzOdueMpY4C9ijvECeVQ3pPP1oklu3ON78R//IYfuu5QVnbODNrzyJ1UqzTMIF6xymYnjfG0+mU2R88svfQbdXYZWmLHo0fY9G5IYZR2hD0e+hldAwQln0QSkicZx01MGccFA77OQhcPwh61n15lfR7/eII02kFKUXvGmyerKFakChAhEOOfAAmpfdQM8WFKbN9268j60WVmnYd7Xh0P32Ycv9XTpZSE9pJimnnbQfg4Xpg/ac5KgD9uCq+6cpdIOiO81y3eOME47gku9cSREvp6unKJ1w18Zp3vjfPkSz2aS0CT7WlN6ifB8fO5QtyPpzRAZMJfomW21y6yGdoHQhhCvKocucrDOHoWpq5+DOex9Gx21cUaBNTBE1Q/q9OEwKtujwohecwn6NQPAO8JXvXkumm4AG24dYoOyTl54oivFlh8c3beaQVetDAz0viNf4Ugj7pgxoumtrkyXO3QoREV/VFCit8SYlN23ydBV3bi34X1+8hBe84UN88G++xO2PO/pVJNIAqYd3v+EMjtl3BbG4UInnFUo0Wb9XJXgwXBG3Ilh06ChChHg49zmn0gTKvMALPPL4NprLVrFi7V60J1fQiAzLmg0aScK2+T5fvvx+PvX1W/jni+/mxjvvx3uH0YqCmG1dx3U3bSMjrPmcduLx5HlBHKdI3uP4o49g4yb46sXXDTPrf/W8F6CzGYrZ7TTTmBWTTQ45qMXVN9zCvIspSwVRk1y3iCfX0rWaDE3hBeUtDenRKGfYZ80Eb3rN+bSSILUTQMoMPSy0Gqzah7F2YoZmUFZAp4CMqj1qlbOGaHCeyCiMLzj95ONICSlXPQd3PbwZ61WVIT3IJ6bKSNN4dJVPN7jbg+qDkC0tepALt2tjiUPAAnFS5e2V+Pk5pBHjy5L21DLmp2dQjeU81JnjU5fcxEU/uIX3vvEVvP7co4kspBr2iOGcU4/g5s9/H2dWEqUt8nwepVvDJBUnnlxr+jrG+arKjiaegg2H7kcKSGS4Z2vORz/3TbaqZfR7GYacSTdPpIVMtxGTUmQdlFLEaZNuVlAQh0UxZejnlm9ffiVnb3gJGjj7zNP4s89fjrc5LT/La15+Ll/4+mVsffBOfuWcE1HAc0/Zl9XtmE4WkRWOo07+JR6dhpvufQRaq4m0och7uKRBv9chMgpf5GBiEuXZs+l43ZtezfPPPpyHbpkm71j0pCYViGyXxHUpXDKsBfFiyCUhUykZYeL2LMw7sCoB5TGAuFDGJd5iCkskcOwRyxnkhG7rwuPTM5ikjcdhfCg58DoKn6UcpSTkg923AC8epRyoAmyGUhHWDUoVdl0s8dU5yObQvo92Oe0Vywip6ML8/Cw0GrjCQTKBntqDWdXmTz/xKf7tstvwusrSyC1nPesEEi2h0tDEIRFR62HeKz7UZziisOo7TCIsmWjFOGcRgRLFTA5914DGKuzkntiJNcxJkxmfMEPKvJqgYybZ0nd0XZgUZV4gWoOJufo/b6JHKC3ff43iwH3WE/mMdVMJB+6TcMW1N3HdXRu546EOFpgSOPuUE5gyHil6nHXWWXzzkmvJVYyLEoqiqrkoCkwa0/ZdVuouR6yf5APvfjuf/dTvM9Fu81vv/ht++3ffTye39IswuoaQ/mF8AWM1NGNlXIEQHkpXaZuq+Ey7gsgXxHhslhFpjZJRaue2LqikFbKCHeA1XqIghDA4byirpNDBJzvv8NiqjaTD+vIXYS1xaUkS+ZwVZp6vfvq3OHBVSj6zJdyouAFJA7wjMqDyDq4/z9zcDDZO+V+f+Vzonu6gEWta6QRKx0iSUPQ7SKIpbH84CSIH2hnEmUqk5eBniP08pglWBUI1U0MkZbCVdYTPLPNW0yNC0lYo0Y1jRHkSbWnEBJOhWjX3oti4dZarb9pKVJWOnH7CkaxI4ciD9uXee6d5bC5jTpp84RuXhoRZ4NfOfS6N7mbWt4SjDm1x1bXXEjealHkBSmEiDVLSKKY5sNXn47/zRr7+8Qs4dq8p3vmev+fDf/1Zbnp4lk68gllibAzzBaAUEtr6ERyhEu1yEtcjdR1SIKUksQXGh9qTwUP5ItSWiMN6i1OGbhlqcELneiiIsKJDYqaKKQZZWj7UvVivqqbdAc45rC2DKtJRyAj9BWDJ0iY4YtG2R8PBGccdSlsylCtC8mERmivYsqDdSABIJqaYt5pHp7vcfO/MsCddv59RFjm+zMBbXJlVewRWOa/eh920fMij1b7EuAztC+59cIbKpWVVC9YvayDFfFUfJViv8CZBGROaUOApyxIrihJFYUHSBt6FTokubvLVb32XcPXwvJOPhvnHOe+l5/G1Sy4l9wofNfmPS69ixoVjjt2/yVF7TnHsAeuYnYf7Ht4cEgq9I04SypmtTPg5zjxmP/75E3/MmScdxM23bOE97/sAtz3wOD0zSSYJkrQpCNI+jiAvSkZbvgWPIWQjhzoTDVUNmSAuZDZbFFakSo62lJSoSFM4y/a5UVXKyjYYWyDicQqskmG582BTiEg5mrEZbvaQaIX2vkqu1Iy8mF0bS0oSj6BNglHwkl8+jeUmJ7G9kIiXtEPttDbMdnuUOma+ULh0BS6aYNv27SiCVHt440M0IyFxBYlRREVO7P3w5oiENPDw24ZEci/gDbfe9VDYvsA5IuAFzzqaZdJBFfMhJgwopSl7HXA5hrCIWaoWBU3AhLKMQc1F3ObqW+7msV7QYicd0uT4g/ZgrwNXcOnVN5OmDbrdLo/34KLv3Y8QokWvfdEZnH3qCXz3qnvY0gPEI9pT5j1aTcUxe8R89AOvZmUzRJY++IkLubc3RdcsJ8s8aZpi+x3iqgSk8ARtJDGFJCGdh2hYPGZFh7pFH1LpRSVBA4ih1BGFMWRaKJXDKovFcs01twYH3cG+TThq3VRIhFRVowgpQQogI5KcpmSsm0pJgBRYlhhaSqELG1SS14PKrl0aSx7dyovQWer4g2NOOnI/JlVOqh10eyAGh0YnDWzhEBWR9wqwnsMO3o+SsLh24XeuDAVHZYntzjOVpmjRw01uStFBOlZZRCH07AHNVy7+LrOAVwoNvPx5p7JK5tFzjxKRhfRuZcCWRFpIKEmkCGWsqjK1ylAfIkrolsLmmYwb7nwEC7SBd73tzXznygfJTZtOt0uz2STTTS686HIKApmef/rJPOfU47jsh9dBYxm2LEPRWFmgXc5bzz+H5SrI3jvu7XPr/ZtwjRVh8mtN2ZulHVnIc2IVmsJ08xJb1akMJPagjiVXMRkhnI2CRKQarcozV0GjOKPJncVqzSWXX0lBkAUt4MRD9yHyPYQcIavM2D6ajFQyUgpWTqqhsJpopDS0QtkS5TxK7doO+wBLe5VeiE2KuJAp+t/f+RbWtyDubiWOFfT7oYZHG9CGRCsmIsUpxxzO+qmg2L9xc4fv3L6F7blBTEy7kdKZnyX3igzoAdJagYtS0BHOhsTENNJkheWujdv57FdupU8434aDVvLa55/Maj/NhJvDKMFmJXGjjc0zWpKxYf+1/O8//02mVC/UclTVjaIUzgmSTnDR5VdTEib1MYev5ZLLf8hcqVFKUxQFVje49tZ7ufvhnE4GyycjvIeb7/wxVid4ZzFYRIWS2YP3WU+jOt9EM6UZK5TNwJdI2WeZKTlivzWsXxWjCMJj+ep1OGXCFyszEu0xNqcsLX3VpAN0PeQ5NKSPLmfQugxOvvNgYpz1RK1J+j7m5vs2cuF3f0xe9ah47atewqQpSew8se3SVAWp5OhinthlnHHqyUw0IKsawxx37AbmZqeJFTQTg8uzup5kMXgUhdPMdkP6yJ5rYz7yRx/k2P32QLY9zFRc0KBaHPTzqM5WjtpvPR/4vdeQA9fdN8Pv/unH6Ks2Km1jgdl+H91oct+jW0KUCTj1pL1Ii3lado5J6bO6bfizP30vq9auo+MT/t9Pf5GLbtjKFhvm0zv/r/N53Xm/TNLZxISbpW0KdG87bVVw3KEH8NG/eAN33Xo/2KJqQuIxxpAXweHvlnD1jXcw40Pax+ZpuP6mW4NGrNpEWBXj4xZf+NolkASz8cprbyVzCpzgrMUYgyhD6YVHHp+mrL7PoXvBi049ilbvEZareVp0eeHzzuSDf/ge7nrgcQqC0NlwxEFM0OO0Yw/mjz7wbmxnGw3taEWwfs2KYQOWZSugbQqW6QzpTUNnBtNswXwfTErRKXA+poiX8Wd//8/ctBE2d2CvfZu8/Q2vZjk9WnYe09tOWs6T2B6rp1r8+pvP44qr70EZ6FvYb98Gb3nzG9h3r9X4bJZWIsgvQPnuEic4hprXV77yVC54xx8zn2uedeIBvOLFJ7P3yr0xvW0k5TSrUssJB+/Jm1/9Ut751tNpxfD3X7qJP/rrT2PVBPOdPjJoCKGEEseWTQ/xy2eexooYJjUce+BhNMp5TjziAN7/vtdw149n+dYVP6CMJvDRBF+75Lskk3ty0CEriAROPuEwfvm002mSsd+qFscfug/v+Y238muvPIq//eT3+eevfIu5MnSNxFmUDr0VUQkinu62TTzrxFPZY1XMZy78Llfe9iClaeCsx6vQkMIXGdOPP8rzzz0DDHzkH/6dTX1DXni0AhGhtEIjTdi88cece/aJaIJ9f/azDuOkww/k5OOO4H2//VKcWc8ffPj/4fqbbub555yKsXDwugZnnHoqLzjzUL74hW+wZdOjnHj0YbziBWfw1ldsYFKGBcsceNiGQEpRzHR6ZL2MqDmBLx14A+kUZQ4zWcll37+agw47kr3XJWw4dC1HHnQMtjdHywgr2k3OPutMfuNtr+aKS6/lnz71D5x//rkoBXMOjjx6Hc879zjSdDVXXX0lotPKHNw18f6XbUB41ceXTN8p70kF9lm3kscfvZvY9liRGl509tmc8qxns25PQzIREga3TcMDD8xz2+338bl/+zIdZehaRVFqdNzAK6EockgaGJcRzT3Ccfuv5Y0vO4eTNhzBxBRg4Oa7ci67+kf88ze/y9auB9XANJq4/jwN+uwzZTj/nLM445eOYcXymNYymO3Bw5vg6utv4ivfuJitnYLpMib3JrTuxIdFtzilKBX4nOV+hnNPP54Pv+tcXvOOv+KWTX26vkE8uZy824MyJ9UFbTvLh37vvRx37DJe/eY/Y2M/BdMg1o681wnltkWXtY2Sw/aY4m2/dh7PPn5f+vOW6fk+37n2Nr586dXcsWmOvHS0dM6zjz2Yd7/h5eyxqsV9j8zw2S99gy9d8gOWrdqDC970OiLbwU1vpD8/TYnQnFpBKTHp1Boe2tLlU/9yIY3JVfRyh4kiil6OLFuF7/dAO1LfQc0+zKlHH8wrnv98jjryQJavg7l+SHq89obHuPg73+WWG65nQvX50O/9NqtXLuOGO+7hkuvv4OZ77qczP0PaXkanTLDESzUFF8XMp9+y1CRxGG9JIkWv18GIRztLI44pS0tWWFSaEicJeW+uaiwXevWW2tBzGmksCwl83iKiUVEDbIEp5tG2Sxp5RKBXesRExCZm+1wP1ViB80KsLUpciPiUOdrlNCOFy3tEcULfQtqaZK7ToygdSZLQz3M8iqjRoCxLlFJY5xAd4a2AzZlKLCk5a1ZM8chjW+mrBp1cQDVAKeLIU3anaShLs5Gwdt167rjvYcpkGSpu4ua2E8WGOFL05mZwZZ8VEw3KzjSJgTjSZIVDN6bYvG0eM7ECFcX4oovrzzFhPI00YWY+A5OEHcJEiFVodp2XBUlsKPMO3pVh9RtDr1Ck7WWUFvK8RJQiilNKBFfkoSgkm2UiKkmx+NyF7plJA6cjenlO7hVF7tGNBg2VE/kCl/fInNBPJkOww+cIHu/0WCOOXQ9LThLBIc7iyoIoaaC1QUTodTqgFK1Wmywv8N7jXBkmRmeWtJFgrUWihDwn1JMkhjIvcc4QNZoUnRniRFHkfbwtiZavxDmP7XTQOsKpBCUeinls3iNpT+L+//bubLlRHAzD8KsFCbDjWWsucG5sLrCreirdthESQnMgbONMunWYHPzPSVJeMF4+LyA+oUkp3et2lO2wzpMuV0Bhh4HlOmHHAUpmmSesqR1V2nrSNNedoDmhlgmnC713xJSZpoh9+Y1l1RAjftDE6Uyh0A8DWhumOVOyBm1R1sCSKPOFYay/ZeIcOBxHLt9e0d6hlKbkgu8PTNdQjz1PM8ZbOlUI1yvdeCLNCes9S7ii1oQ2mmx60IrBaabzK65zWOu4hoRSBkXBuTrkJqXEGmf86cS8bJvR15lOawwd87ywWos2lhwD3fEXUtz24C8BrQt6XercM6avwxEGA9N5C8zn3Qz8+s/fHz92qxtH4mViWbcDqOYAp1+Blcv5jFYKozVZ27qV5OVPwppwFuL5jBmO9L3n8vqVznlWa0jnVxg9S1mx/YhSmvjvBXpfn3yTma5fybp+GmQF8zShfL+1qNSJOUuKpDDReYMumWX+Xru7kkUbXedO0YZSCrnsOrxsV8sfvOd1niAk/O9/kZYVcgRTKHnZxq4dCKuCUEsahsML0/cL2hzrDsl+BNsRz2cwHZdvV8zpD3JMtW0oJ6bLGX041SkXrEVrTbi84vuB+TrB8MKiDMofIV3QptaUrsvClC2oF6Jxdei6P1LCFe0tIVwAhXUdvh8J4Yy2Dm17lmiZyzZK+GWgpFSnmOsgx++1ZSUXKAm/bWGzWpGdI4WAXRLLWu6trZ/Zx+8nCfExyFEpOJ4gptqi4j3W1iMOjdm6tYqCrieGiB8PlJy5fPnCYRxIYQJWGHsoK2tKpLgQU8YcjpAznbWEEBhGj+vrMRjoDuV77H3SIFX/Ggtak+aJOE8MvcOMPayZdVmwx2M9PkJp1jmivIM413dK50lzql//DifmKdRNnkbTOUu8Xun6gfuUBdpgXcc8XXCDI4crStdmljkmdD+AsajjCzlsQxNXKGVlPB5Zz9+59QOnMGM7x7oWlPe1HSUtlBhRtiOXwhomjPPQ+Vo3lAHrtnf5gRxntHfQWXIppJyw1lLWwjJHzHiqX5OMZUlbufiyYF3Huh2ro3WhM4aUIsYYYpxJ0wW28WDefd7fInsf+nXr2a4sDaglVHVQBaUOd79PUUDheXqAerR8bRDdFa89TRP32Jl2K0R7NLe/WY/77bDdzq0fatuCtbvOY1n6cf0n5d3T7pPx3MbWlH0H1b5R/nHa8125PQ6POe4fHssq+9rX3XnlvqDd43Ub874td/8e/7xuevc4rY/rbjtqb/dQ3das3J6fWtq3f9xul/2sPvzr1rNbJeJzZuucHuzO2z9Z+2vfXtS7Zb2z/LKVT/x8VZ5fIFtUf7DWbz+Mf3zbz6e8DfJ7gS3v///mPpb/Xfbtsp5bEn923vOqqt3J6s2Fyjt36/l2b0G8dwo/re3nDcZbn3ezghCfhIREiAYJiRANEhIhGiQkQjRISIRokJAI0SAhEaJBQiJEg4REiAYJiRANEhIhGiQkQjRISIRokJAI0SAhEaJBQiJEg4REiAYJiRANEhIhGiQkQjRISIRokJAI0SAhEaJBQiJEg4REiAYJiRANEhIhGiQkQjRISIRokJAI0SAhEaJBQiJEg4REiAYJiRANEhIhGiQkQjRISIRo+A+MNz119pn6lQAAAABJRU5ErkJggg==;" vertex="1" parent="1">
          <mxGeometry x="459.37" y="819" width="60" height="60" as="geometry" />
        </mxCell>
        <mxCell id="zjVueI3nGS8uGwPDVi_S-55" value="" style="shape=image;verticalLabelPosition=bottom;labelBackgroundColor=default;verticalAlign=top;aspect=fixed;imageAspect=0;image=data:image/png,iVBORw0KGgoAAAANSUhEUgAAAM0AAADKCAYAAAAGucTRAAAgAElEQVR4nOy9548baZrt+QsyIui9t+l9ypeqqqurvZ2eRmOwu1/2w/4v898sdrFY4GJm7szd2zNtyqqkks9UesMkk957BsnYD8HMNuWUUilTqeIBVIIAFRkZihPv+z7Pec4RVFVVGWOMMZ4buou+gDHGuGwYk2aMMc6IMWnGGOOMGJNmjDHOiDFpxhjjjBiTZowxzogxacYY44wYk2aMMc6IMWnGGOOMGJNmjDHOiDFpxhjjjBiTZowxzogxacYY44wYk2aMMc6IMWnGGOOMGJNmjDHOiDFpxhjjjBiTZowxzogxacYY44wYk2aMMc6IMWnGGOOMGJNmjDHOiDFpxhjjjBiTZowxzgjxoi9gjFeLcqVJIllC1Ouw2004HWZsVuNFX9alxpg0byhUVWU4VMnn69y5u4tBFpma9DE14RuT5iUxJs0bin5/SKvd4yhZ5O69PRwOM7Is4vVYL/rSLj3GZ5o3FO0RYTa3MzxeS7K1kyGTrdBsdi/60i49xqR5Q1EqN/ng4y0++3yfarVFt9un3VHo94cXfWmXHuPt2RuE4VCl01EoFOusbxzz8HGC3b0sna6Cogzo9Qb0B2PSvCzGpHlDoKoqvV6fdKbCHz/Y4N6DfR4+TpDP1+j1BgxVlX5/wHBMmpfGmDSXGP3+kG5PoV7vUCo3OT4us7Wb5c7dXXZ2s+TzNdodBQBF6dNodOgpgwu+6suPMWkuMbo9hVqtzUGiwMZWhgePDnm6liSbr9JsdP+GIIoyoN7o0O31L/CK3wyMSfOaQjuD9Kk3OrTaPbpd5fRs0ukotNs9CsUG2VyVXL5O6rjMQaJAOlOh01EY/N02bDhQ6Xb7DPrjleZlMSbNa4jhcIii9KnV2xylSmSyVSrVFpVKk1q9Q7HUoFhskDgqcnhURFEGXyDJFz5THaL0v/nvjfHNGJPmNUGz2aXR7JBIlkinK2SyVYqlBoVinVq9Q6er0On06PUGtFpdWu0etVqbfn/IcPjNsak6nQ6DQUIU9efw07zZGJPmgjEYDOn3hxSKdVLpMp/e3ePxkyN293Jkc9VRb+Xlt1SiqMNklBAljTTD4ZDhEEBFEAR0OgFBEF76e74LGJPmgpHOVNjezXLv/j5P1pLk8jWKpSa1WptO94tnkxeFLInYbSaMBgmAbK5GodhAFHWYTTIetxXrWJP2XBiT5oLQ6/XpdBUODgt8dm+PP32wwYPHiVfyXYIgYDJJeD1WzGYZVT0haw6LxYDXbcFkksekeU6MSXNBSGcqPHp6xL37+3zw8Ra5XO2VfI9er0OWRYIBJ9euxAn47PT7A9Y30vz5o00mJzwszYcJBp2v5PvfRIxJc87o9fo0W122d7N88NEWj9eO2NhMv7Lv0+t1GI0SRqOELIuks1WO0xUePDrk0ZMEAhDw2emN+zfPjTFpzhmNZpeDwzxP11PcubtLvlB/pd+n1+swmWTa7R4bW8dkslUSRyV293JUKi3qjY7W1xkLOZ8bY9KcI1RVpVhq8ODRIU/WjjhKluh0lVf6nSc9n3S2yt37+6RSZQ6PinQ6Cqgq3a5CTxkwGI5J87wYk+accDJJWSjWuXt/n+2d7LkojhVlQKXSot3qkclU6HT7dDo9hkMVUdQzVFVU9Zv7PGP8BWPSnBM6XYVKpcVhosDefp5svnou3fnhUGU4HKAoAxp/N4CmqiqM+XJmjIfQzgmtZo/9gzw7uzky2Sr1eve1ecO/JpdxaTAmzTmh01XIF+rkC3UUZfDaEEbQjdUAZ8WYNOeEbq9PJlfVSPMaKY11goBOpxuT5gwYn2nOCSfzLI1m57kElmeBXq8byWSMSJKeSq1Np9NjMBh+7dZLpxNwOsz4vDaMhvGj8LwY36lzQr8/oNns0mr1UF+SNILASGSpQ68XMBok7DYTAb8dWRYZHhYY9Ieowz4D9auLDYIgYLMbcbssyCNN2hjfjDFpXjFUVUVRBrTbPer1Ds1Wl+ELnmdO1MhWiwGbzYTHbSXgsxOPeZiIe3A6zFRrbf7bv96n3ujQ+4YWkE4QsNtMuFwWDPL4UXhejO/UK4aqqgyG2gBYt6ecqQig0wnIkojBIGIwSJjNMmaTAbfbgs9jIxhwEIt6mJvxMz3pw2CUODgs8OePNxFFPV93TJEkPRaLAY/bitdjxTDenj03xnfqFUMQBES9HknSI8siovh8h25BAFkW8XlthENOIiEX8ZiHSNiFx23FYTdhMhmwWGQcdhMWi4HBYKj1fk45+dXf43SYiYRdRMIu/F47RuN4e/a8GJPmFUMQBPR6HQZZwmI2YDLK37gCGI0SXo8Nv8/ORMzD5ISXWNTNZFz73WYzYRo95CcEVFXN80wv6hBFHXr915PT57UxNxMgFHBgs41HAs6CMWnOATqdgCyLOOxmbDYjet2XV/qF0RkjFHTw/nvzXFmJMT3pG22fNKWyQRZHWy/hC/+vwSBiNskYDBKSpPtacoZCTlaWIzidlm/zR/1OYEyac4Ik6bHZjNisRgTdF59mWdYe+JWlCCtLEd5+a5r5uSABvx2L2fDc3yMIo0blVzDGbJaxmA3MTPlZXgjjdo1Jc1aMSXNOkEQdDrsJm/XLVxqLxUAw4OAXP13hxz9cwu2yYLUYntsIQ1VV+v0hijKgrwzo94dfWnDwuq3EYx6uXYlx8/ok8rhqdmaM79g5wWwyEIu4iUXdWCwGWu2T5qOKIMDcTIBb1ydZWYoQDbuQJD16/fMLNlR15LjZ7WtS//7fVulEUYdBFllcCPP9d+eYmwlisTz/CjbGXzCW0ZwTTGaZWMxDPObFZjMiy9oKIghav2RxPsRPfrjI5IQXg0FE9yVbuK+DqqpaWXtkKDgcqPx19UyS9FitRpYWw/zipytMxD3f5o/3ncJ4pfkWoKoqg4EWotRuK8iyHoNBQpa0EjNobjAuh4VoxM3CXJDhUOXgsIAo6rBaDMSibmamAzjs5hfSgQ2HKs1ml2q1RbOp2c8OhyqSpMdkkpmd9nPz+iRv3ZjE57VhGCkAFEUjWnc0DGcyyciy+I3Vt+8yxqT5FjAcaueJ+sj90mY1YrOZECzCKWlEUYfVaiDot7MwF6JabZM4KmIwSDidFgJ+B+HQi5tbDFWVVrtLtdam1erS6ymoQxXJqPVxlubD/PbX15mc8J66zpwkDTSaXWq1FgButxWdXjdWPn8NxqR5AZysLMVSk3Smwv5BnsOjIrl8jUq1xfxskKWFEIsLYSZif7sN8vlsvPfuLN2uwuZWmsFQpdPpvbQhYK/b5yhZYmsnQ73ZxWSSCQQczM0EuH1zioW5EBNxz9/kbQ4GQ3b2cqw9S7G9k6FSbeF0momE3UzGPUzEvMRjbiRJj+4ryuTfRYxJcwYMh+rIHlah2eyyd5BnYyvNg4cHPH6apFZv0+0qtFo9rFYD0YjrC5/hclq4fnWCYrHJ3Xv7FMsNWu3eKDajjyTqz3yeGQ6HdLoKx+kKiWQJnU4gHHaxuhzhrRuT/Pwnq3g9VoxG6W9Wj8FQJV+osbF5zGef73GQKCLLIhNxL1eWIly/GkdFxW7TFAcGWRxX2xiT5rmhquopUQ4OC6xvHHN4VCCXq5HN1yhXmvi8Nvx+OzeuxllZDON2fTEUVqcTkEQdM9N+/ul3N3m2mebpelIzv0hX8HisZ0pfPlECVGttqrU2er3ArRuThIJOrq3GmIh7cDnNSNIXG6J6nUA07Obqaoxur48gCGRzNZLJEq1ml0SyyL2HB8xM+VhaCBOPeohF3d/5rduYNN+AXq9Pp6NQqbVIpys8enLE2rMUnz84oFJtnfqKhYJOFhdCLMyFuHl9grnZENYvKekKgoAo6olH3dhtRrweG4IAFouRar39QpKW3iiWw2SURoWGENNTPhbnQ19LQL1eRyjkRB35ORuNMlvbaY7TFSrVJvlCnQePE8zPBcnlaywvhOl2FRwOM3a7CcOoYPBdg6C+LnO3ryGGo+3LYaLIR59us76RInFUolRu0mh0CAYczM8FWVoIMzsTIBhw4HZacDhGTUy97isfqsFAa0QWSg0y2Somk4zJJOHz2M680jQaXWr1NtVaC0UZ4nKZsdtMWC3G00LEV0FRBnR7fer1NuVKk3KlxWGiyNZOhrX1FE/Wk0iiDqvVSCjgJB7zcPutKW7fnCYUdJzpWt8UjFeav4OqqqgqVKotCsX66Vbs4zs77B/kATAYJBbmgszNBlleCrOyFGF22o/FYnzuuZQTQgV8dlxOC72ewmCglYjPCr2ow2IxYLMZkSQR+QyNUUnSFNhWi4GA34Gi9AkHnXg9ViwWA7Ksp1BsUCw1OEgUSKXL9AdDhoMhszPBkeragtkkf2e2bOOV5u9wsgLcf3jAx5/tsLaeYu1ZilqtjSyLmjZsOcrbt6aIRd04HRYsFhmTUX5u2f9f44Skw6E2mqwflXvPAs2maQiCMJr5f/GHdzjUytAn+TelSpONzTSfP9hnfeOYZ5tp7DYjPq+Nq6sxrq7G+dH7C8Si7hf6+S8jxivNCCexfEfJIrv7OR4+SfDgUYJ8oYbS67MwH2Iy7mV1JcrCXIjF+SBOpxnpSxTHZ4EmsASd7sXDlnQ64aX+/7//rBPvZ4fdRCjoxGY14rCbCAYc+Lw2jtMViqUGT9aSVCotul2FxfkQszN+3G4rRoP0UsR93TFeaUZoNLSE5D9/tMm//PeHpDMVsrkqdruJaMTNL366wo1rE0TDbpxOMyaj9MZ3zU8ejV5vQKerkM1WOTwq8sFHm3z06Q6FYp3BYEgo4OTqaozf/fYGSwsh3C7LG5249p1faVqtHqVKk82tNI8eJ3iynmRjS9uCLC1GmJ8NsLoc5cpKlFjUjd1m+s70Kk5eCNq4tYgkauMNol6H12Pj6bMkh4kihWKdzx8eoAoqR8kJrqzEiISduF2WN7Ip+t341/8aVGstdnaz/Ocf1vl//9s9Gs0Og6HK7LSfn/xoiffemeXm9cmLvszXAmazjNksEwo6uXVjkj9/tMknn+3w+z+ss7mdZnM7zf5BnnZH4W2mcNjNvIGc+e6SptHokM5WebKW5LPP93jy9Ihef8DMdIDlxTDXrsS5eWOC0Djs6EthMIjMzwW1KA+jzNqzFGvrKTLZKn/48zOazS61eoepSR/R8BeVEZcZ3znSnAxrFYoNnjxN8uePNvnThxtUqi1MRpnVlSj/y+9uMT3pY2rS98quQ6t4qaceZie/vwz+UonTziJa5/7lP/fLYDBIzM9qJedY1E004qLR6LCzl+PDj7eo1do0mppftddtRRT139gzuiz4zpGmVu+wuZXm/qNDPr9/wNZuhsFgyPWrcX70/iJLC2EW50PYbaZX8v3DoZbmXK22yRVqGI3SqBFpwGSSX+pzO90+jUaXQrGOqqq4XVasVgMWs+GVVbNkSSQSciHc0kwL79zb47N7exSKdf70wYampqi0WF2OMj316l5C54nvFGnaHYVcvsaTtSSffrbL0/Uk7XYPr9fG9atxfv3LKwR8DlxO8yu7BlWFwUClVG6wuZU+Le16PDacDk0jJop69DrhVKKvG839n64kqoo61PzUtEj1Ad1un3qjQ6FYJ5kqI4p65mYD6HQOTEbpWytJ/z0kSY/LZcFslvF6bIiinlqtxcZWht29HJKkp9frYzbJ+Hw2DAYRWbrcj93lvvozQFEGbG1nuP/wgA8/2WZrO4Mo6rl1Y4r335vj+pU4oYADk/HF3/bPD5VMrsYHH29TqTZpNrt4PFY8bhuRsBO/z47LqUlhLFYjJoOkBTCN1Mztdo9ms0e13qJSaZHN1chmq5QqTSqVFp2Ooo1Vmw3YrEZc52CeIUl6HHYTN69P4PFY+eMHG/z5w00qlRYffrKFwSChCgILc0HiUfcrv55Xie8EaVojS9hnm8fcvb/P5naaZrvL7EyAmzcmeP9780zEPeciBTlxi2k0Ouwf5kkcFclkq/i8NrxeG+GgE5/Phs9jwzkijskkI0sig4HWgK03OtQbnZHUp0E+XyeT1RqOtXpHiwXs9UdatMFLe0c/D3Q6HUajjmjUjd9vp9XqUa22eLqeYmcvy9P1JCaThEHWj4wOZeQXkAy9DvhOkCZ1XGZnN8ufP9rk7uf79HoK05N+/vGXV3nn7RkiIScGWTq3RuXJ+UJVVRi5LZlMEhaTzEEiz8bW8ciNU48kajoynSCgog2/9QdDBv0hPWVAvz8YNVr1GI0yg4E2wamq6qm+7Tz7r9o8kI7rV+P4fDb+7d8fUau3SR2XaTY76AQQRT2z0wH8Ptv5Xdi3iDeaNNrMfo8na0nu3N1lYzNNq9VlZtrPO7enuXVjkpkpP7J0diOLl8VwqBlhqKqKJInMzQRZXY6QzlQplRt0OgrdXp9er69JfJSBNosj6TGPVh5J0mMwiLhdVkxGiUSqNFq5tClQjTTn+3NpNrwCgYADt8tCNlejWtNWnNRxmQePEkiSiE4QMMh6LM+hxH7d8EaTplZrk8lVufv5Hr//wxrdXp9g0Mn3353jh+8vEA45R6O850+Y/mBAt6OgqmA0Sty8PsE//fYm7U6PVqtHvlCnUmlRqbVOy7eSqMdqM+KwmbDbjFitRhwObQSg3x/w4SfbDAZDqtXW6OHVIepfThv3otDrBHQGieXFMGaTTL+vks3X2dzOjGZyTLhcZmIRPaJ4uayk3kjSnLzFt3ezfHZvj8dPk+QLdVZXoty+Oc1bN6eYmwlitxnRCbpThbGqquh0f1EZD4dDqrWONmdSbtLpKIiSDqvFiN9nx2o1YjSIp5WtQrFOsaQd7LtdBVHSYzFrzvwnQ1s63Ym3s4jNZqLR7I7KxA2OkiUiERfBgINwyEWr3aPZ7NJsdml3eoiiDrPJcOqSedKhl2WRRqPL9l4Oq8WAXq+j1epykMhjNErkCzX0ep0W8PQt80dVtf+cnNWcDhNej1YlE0U9Qb8Dq8VIOlOl3emxvpFidz/Pp5/tYpBFzCYDkvT8xvCvA95I0ih9LQ/mwaND/q//5w7lagtZFnn39gy/+dU14lE3bpcZQadDHTnJDFWV4WCIKOmRddptGQxU0pkKa89SrD9LUSg2MFtk4lEPb9+aZiLmQXJb0enUU0umh08SJFPaoJrNaiQSdnHtSpy5mSA6hwmjQdIsaq0mgn4H1WqLo1aJDz/eIput8o+/vsZbt6ZwOcz4fbZTMp8+7wLoBB0nzrPagyYgCF10Aqci0mqtxYOHh2RzNZwOMzqdgNIffutpzidR7ycpB/OzQW5cm8DrsaLX6zCbteG699+bw+Ew0en0+OCjLT76ZJu+MmBuNojDYcJiNpz7VvJF8UaSJper8fRZis3tDMVyg0jIRTTiYmkhTDTswmY1ngoJe6OEssNEgY2tDB63hcm4F4/HitNhxjrKcNHpddqBNl3iKFniOF1hfjbA3EyAWNRNIODE4TATi3jIZGvkC3WO0xUOE0USRyVmZwLMzwaZjHsIBZ1EIy5+/pNlggE7druJer3D1k4G+b9EDhIFpqf8xCIuYlFtxv95FNU64S9pAc1mj939PPliA/OoaTp4BVW0v8Sqq+hFPaqqEo97sFoNGEYjAoIg4HZZmZ70cf3aBOVKi3SmQipd4fMHBwjA6kr0TJ7VF4k3kjRHySL/8f895ulaklarx8y0nx+9v8DV1RjBgONv/m6v26dSaXH3/j7/5/99h8X5ED/6wQKryxHcLgset5We0ufpM5O25dvJUSjW+QPPWF2O8P3vzfPjHyzi99kJBZ1YLUa2d7PU6x2OkiUKxQYAkxNefvj+Aj/+wSJut5WpkUxndjaAx2vj9/+1xmf39tjezWK1Grl9c4pbNyb5+U9WMJtkjEbpa9/EJylpOkF7GTRbXbZ3s6/uJn8FTEaJ61cn8Pvs2O1/2Q/abUYm4l6+d3uGvjLg939YJ52p8KcPN0GFmenApSGN/p//+Z//+aIv4ttCpdpidz/HZ5/v88cPnjEYqoQCDn76oyW+/715gl/SvNSi/FQSiSKPHieo1NocJoocpUocHhXp9vrY7SbcTgtzM9p488yUH4NRot8fkslWODgs8GTtiFq9jckk47CbWVoMs7IYZTLuwSBLdLqanOQoWWJnN0c2p50zRL2OSNjFVNzHlZXoyGFTE5Sm0hX29nIcHhWoVFug8pVz/52uwsFhgb2DPMlUiUajc053XcPJVmx1OcLtt6YJ+u0YjX/b99LiQLTtqXZe61CpNAFwuyzo9brRLuD13qa9UStNrdbm2WaaZxsp9g/yTE76WFwMn8ZXfBlEvXa4PnHFPE6X2d7NsLOXZf1Zip/9ZAWnw8zUpI/V5ShKf8DuXg6zWebe/X22d7Ns72TR6QR+/Ysr2Kwmpia93Lgap9VW2NvPYTLJ3Lm7w3G6wt5BngePEty6MYk4snKanwkyPxOk0+nxb//jER99omN945iNzWPW1pNMb/l5+61phkMVq9VwKrfRJjYvvlyr1+swmSTcLitut2ZBJcsi/F3hQZL0py6ix+kKuVyVew8O2N7N8ngticEgEQw4XnuHmzdipRkOVbrdPhtbaf713x/yZF07tH/v9iy//fV15maDX6kn00aNdZjNBqYmvITD2hZr0B+SSJbI5ets72bJ5mrU6x1sVi0NOeB3MBn3MjPtx2SSabS61GodNrfT7OzmSB2XESU9oZCTcMjJzJSfeMyL2SRTLDYoV1vsH+Y5OChwlCoiCOCwm3HYzcxM+ZmbDRCPeTS720aHXL7O4VGR7Z0slVrr9C1+cl65qJXGaJSIRdxcWYnyy5+u8t67c0xP+kYH+68Kr9KKBv3BkN29HOVKi1KpgdEgMTsTGCmiX1+1wBtBmk5HoVBscP/RIf/2H48oFBvYbUZ++qNl/uGXV3G5LF/p8nIS7+dwmJie8uNyWDAZJZT+kHK5Sanc5DBRoFJt02h2MI3m5wN+O+GQS6ugSXoUpU+93uEgUSSdrpDOVDAYRDwuK26XhXDYRSjowGiUaIyi0Y+SRbL5Gql0GZ1OK0Nr49UuJuNeggEH3V6fdkczuUhnKuzs5Wi3e0iiHmXU8ETQSr+HiSL7hwWSqRL1V0ganU7AIEu4XBaiYRdXV2PcvjXNj3+4xMJcELvdjPg1q4Ver8NuMzHoa6TJFxukjsuYzTKzU34MBvG1toZ6I0hTrjR5+PiQB48TPF1P4nSYeevGFO+8PcPSQhhZ/uaO/0mfQZL0uN0WIiEX05M+TCaJTkehXGmSOi6zd5AjmSwxGAwxGES8Xht+r52ZaT8+jw2H3US9oRUBMtkq+wd5coU6oJ6uTrOjrEtxpAA+SBTI5Gps72Ro1Dv0B8NTU/RgwEks6iEUcAACmVxNs5ZKFE7VA2azAbfLytFIEZA4KlKvvxrSaJIfGZ/Xztu3pnj/vXnef08rsoSDTkwmedRQ/frP0OkE+v0BrY6CovTJZGsYDBJWizbKEI28vqLOS00aVVVRlCGJZJH/+vMGT0fbsrmZAL/82SorixGCQceZDpZGo/YGDfjtRCNujAYJQScw6Ks0mh2SKW3L1u316fc12ySb1Ugs6hlJ/K2oqrZdrNc7HGcqVCpN2h0FUdRjt2mpyg6HGZvVgCyL9Lp9rV+TLNHqaOJSAdDrBbweGwG/Hb/PjixLDAZDer0+2VyNcrlJNldDpxcYDlV2drMcHOZJHVdoNrvf+v22WrWm7vSUj6tXYrz/3jxv35o+DaIynpqNfP3nnKzu2uoqaS+OwzyKMqDV7uFwmJifCyHwcnZUrwqXmjT9/pBqvcXGZpp/+e8POTwqYLUYuX1rit/95gbhkOuFzPeA0+2Sz2dnbjrA5ISXQMBBu92jUm1xkCiytZ3h6XqKZrOD2WzA5bQwM+VncT7MldUYNpuRdlshna3ybCPFoycJDo+K6HQCdruZK8tRlhbDvHVzClHU0Wx1yeVqbGylebKWZGs7g14v4LCZRuciH7duTBIJuzDIIrVam42tNIeJAo+fJNjYSpPJ1iiWGijKy6UQfBlONHs/+8kKv/nVVZYXwgQDTsxm+YUebknS43RaUJQ++4d5ytUWh4kCXq+NlaXIqXLidcOlJk273eMgUeTx0yM+vrNDvz9gYT7EzeuTvPPWNGbzi8/GnLwNzSYt38Vq0bRekqQ/LTfX620y2SrdrkKn20dR+oCA02Em4HcgifpTp/1+f0il2qLR6J56rKmqikEWiYbdqGjGFSdzM6WSdp46Me/rdvuYTPKobC5p0nqDCAL0+wPyxTrVWodarUW7o5yOPL8MpJEMKBxysjAf4taNSd5+a5orK1FmpwPYbaaX8jjT6XQYDZL2sijUqdU6HB4V8XpsxCIezGbt3r9uuNSkKVea3Lm7x/1Hh+zsZfF5bfz8x8tcWYkSibi/tdKlIGglVa/HxuJciNmZwEgS0ieZKpFMlXi2cUwyVSKVrpw+aIGAg4WR13PAZ6fdUchkq2xspnm2eczTtST9/pB43Esk7OLGtQkmJ7yEgk7KlZZ2JjrMs7mdYXs3i6IM8Lqt+Hx2Zqc1NcLKUgS9TrOOrdbblCstBoNvp/NvtRoJ+O28+/Ys/9s/vcV7785y89rkaALz2zME7PeHCIKgqSK2MxiNMnq9gN9nJ/IamnJcWtJojcUqf/pgk2cbx9TrHWam/Pz0x8tMT/pw2E3f2j/qSVlakvSYzTJGo4xBFjGZJJwOM2aT4bTsnS/UTi1dW21NZOmwm3E4zJiMIjarprNSVZV8vo7S79NodKjV23Q6fSxmGZ/Hhsko4XJqlbx+f0iprAlB640O1VqLXrePbJAIBBwjL2YjbrcFq9WIIGiSmZMg3LNAp9NWynjMw9XVGO/cnuGtG1NcWYkR9DtwOsyI4tcf9M8KFZBlPcVSg62dDENVpdHsMhH3MBHzjNQOr0/v5lKSZjjUMlkOj4r8y789ZHMrjcUsc3Ulym9+dY1wyPlK6/yyJOLz2piZ9hYBHl0AACAASURBVHPrxhQ+nw29Tk+uUGPt2TGb2xkePUlQrjTRizr8Pjuz034W5oIsLoSZjHsRENjZzXF4VOSTz3bZP8iTOi4zEfdydTXK6nKU61fi+Lw2ej2Fvf1RgNSjQ/YPCxQKDWw2IwtzQWJRD1dWoszPBQn47dTrHZqNLu12j/5g+Nw/18m8zkTcw7tvz/DLn63yT7+9ydJCGJdLI/ArcbaRRVxOC6Wy5htdKrfY2cmwOB9mbjaAJIovfDZ9FbiUpOn2+iSTJR4/TfLp3V06XYWlxTDXr8a5fjWO1fJqa/wn5x1JEjEYRYwGzVTC77MRj3kwGqTRLL9CJlflOF0+tXA1m2RcLgsel4VY1IPfZ0cSdbQ7yqlH8uFRkVq1zXCo4nZbiYRdTE548Xls6HQC3W6f40yVQrFO4qik5eTodNoq5bVp25qIC4/bitks0+lo8etfdc6RZRG/z8bifIj33pnjRz9Y1CIHZ0ME/I7TtOlXJd0/WUmq1RaVaotms0dy9AJxOjXR7KtyB3oRXErStNsKm9sZHjw6ZH3jGEnSc/vWFKsrUaYmfOdWcTkhj8tp1rYScS8Lc0F6yoB8oa6ddTaP2dnNki/UMZlk/D47EzEPU5M+bl6fwO2yMBwMSaZKrD1LsbmV5ulaCqU/wGSUWV4Kc/3qBDevT+B0mGm2uqSzFdbWU+zt53nyNEm/P8BuNxHw2ZmbDTI/G2Rq0ofVakQdqhynK3S6ylfmeprNMhNxL2/fmuYffnmVH72/yNxMAO+IpOeF9ojcxWKdrR3tjGo2aY6ePu/rMxp9KUnTaHS4d3+fO/f2SKcr+Hw2fvXzK6wsaZF9X9eNfpXQjQSJJ5EZlWqLXL7GYDA67+TrJI6K7O1r0hGjUUbU6wgFHUxO+lhdiWpnMUEbQziRzRweFWi1ehhkkVjUzey0VgCw20y0Wl1a7R6HCS3t4DBRoD8YotfrcDrMhEMuFuZCTE54sdlMqKpKtdY+vV6Px8riXIif/niZH35/gakJ30jbJp77UJggaNXKTLbK46dJZFlE6Q81l86IC21u6OL7NpeONP3+gHKlxQcfb3Lv/h69Xp+pCR//+OtrzM4EkCXxXI0kQJvwPGk69np9ur0+3a6iqaWTZRRlQLXWJnlc5jBRIJEs0m4rWK0GzGYD8aiH2ZkAV1diCAKjlUpLYNvYTJPN1UAFl0vrA01P+VldjgIq5Yq2pdk7LLC3n+MoWdSKFEZtqxaLulldiY2aoyKKokWg63U6dCMj8+lJrf+yvBTBZjWdKijO+wE1yCJOh5nEUZEHjxN0ugqNRofVpQhTkz70+tejIHCpSKOqKs1Wl+N0mU/u7LK1kyXgt7O4EOad2zO43daRsd75Xleno1CrtXm6nuKjT7f58OMtPr6zw+5+nnq9/TdnCVXVSFGrtUkkS2SzVeqNLrIs4nSasFi0ac9IxIXfa6fV7lKvt8kV6qQzVVLHZYbDIQG/Ft03NekjFHTisJlod3rk8trIdeq4QqHQoN1RcDq0aBCPRzvvTMQ9mIzyyBKqT6ncIF9sUCo1GKqaT7PRIF2I4YUgCBxnKhynK9rP3uhoioOIC1l+PYwGLxVphkOVQrHB7n6OO/f2SB2XWVoIc/VKjNVlbWtzHoQ5GfFttbqUKy0SySK7ezk+ubPDBx9v8fnDAy097e8IAzAYGf4VSw32DvKUyk3qjc6ociXicJiJhFzEIh58PhvdjkKz1aVcaZLN1jhKFhkMRzHlZm302uux4XJaUPoD6nXNZTObq5LL12g2O6d2UB63lWDAwdxMAFHSrJZ6Sp9Ktc1xukyuUGcw1EaiT84/4ii06jzONiffU6m2aDS7ZLJVMpkqczNBAn4HdpvpVNV9kbhUpOn3Bxwc5nmylmT92THtdo/vvTPLtStxYlH3ObljahGD7bbCzn6OTz/b5T//sM7/+P1THj5JcJQqUat1nrvU2+0NKJa0F8GjJ0c0Gh1UBNxOC5Gwk+kp/2ik2sNQHZI4KnKYKPDgcYLDRJFyuYnDbmJlKczCXJCVpQhOhwlVhUSyqBUL1pIcJgo0mx0sFgMTcS/+UdEgFnXjdllpd3pkslUSR0W2drJs72VpdxR8XjuieL5ylk5XQUBg/7DA4VGRUNA5KnRofaKLxsWvdWfAUFXJF7Tw2Hq9g8EgEQo4Cfgd57pst9o9EkclHj854u7ne6xvHLN/kKfX648mQc/wWS2tn1IsNThMFFFRaTZ7tFtdJuNefD47VouWcSmKOgYDlaNkkUy2gqJoo9r9/gBR1OH12kb+zQI2mwlBEDhKFkkdl+l0FbpdBaU/YDgEr8dKKKhJcuw2E6Ko47HxiHRa2wJm8zUkUU8s4mZ60n+uUn27zUQ85tEKF6OE7cRRkaursXO7hq/DpVpper0Bd+7t8eHHW+TyNcxmAz/94RLzc8FT66LzQDpT5fd/XOfDj7d4+OiQTK5Gt9c/c/cdtIaiKOpPJzFL5SZ7+7mRELOIwaAdjv0+O9OTfm5enzidbqzV26w9S7GxneHJWpJms4vNYmRq0jvatsYJh1yjrJg2O3s5dnZzPHiUoKf0MRg0Rfdk3Mv8bJCZKT92m4lOV+sZ9br9URy6gcm49xXcyS+HOlTR6XXcf3DAs630qGghsLIcfS2ybi7NSjMYDOl2FQp57UCs0wn4vTY8bis2m/FcR2S7XYV8vkY2V6VUbtJq9174s7Rej8DMlJ9I2EWzpc3OFwp1qtUWqjokeVwmFnEzEfMQiWgaNYtZJhpx4fPaSWcqZLJVHjw6pF7vMDvjJxr1EBkJLVVV5TBRYD9RIJ2usLuf1aLOCw1mpv1MT/qIRFxMT/qRRBG7TbOX0ovaROt5T1HKsojDZho1am202j1Sx2UqlabmJyc+f+T7q8ClWWmUUcXpg0+2+fzBAW6nhYW5IN97Z5ZI2HWuN7FY1JKNj1JlSuUmylc0DZ8Her3WIP3B9xf4xU9XmYh58HisZHJVkqkyh0dFDg4LJJPaSHTA58DrsTE54WVywsfsjB8BgWKpyXGmosl4ttLk8nXcLgt+n43V5RizMwGmJry028poe1fl2VaaxFGBUrmJxaKJM0NBBxNxDzPTfiZiXux2E6GAE+85NhdPiiK7ezmy2SqVaptuR+Hm9UliUTeyJI5J8zyo1Vocp6vcubfL1naGSMTF4kKIa1fieD3Wc70WRRmc/ur0FPrKgF6vz4vmZAsC3LoxybUrcUJBB5GwFojrHkVkNJtdSuWWVkHLValUWgwGQ0wmbbWxWoy4nBZcTgt6vUC11qZSbVGttjXHz0YXnSAQHnm+BQNOHA4TkqSnUm2RzmqfWS43abZ6p5U2j9t6eh3mc7RXOpmi3T/Mk8/XyeVrtDsKq8tRQgGn5mV9gXM2l4Y02VyNvf2cVqFKlpia8mnpy3PBc6+oyLJIwG9H1OtoNnvUm10qldYLzbBoDppw7UqcpYUwU5M+5meDLC2EmJkOMBwOKVdaWqNzK83d+/ukMxW63T5ul4XlxQjxmIeVJe13u900Miks8PjpEc82jjk8KiJJeq5fibG8EOYH781rtroWAweJAo+eHPFs85jt3exIqaCZZQQD2qpmsVyMH1nquEyh1CCVrtBodJidCeD320fi0YsrPV8a0iSPy2ztZNnYTJPL11icD7G6HGUy7sVmO18TBgFNgiLJIh6PhVDAQSzqPhVqqkP1TOpiQRC4diXG/FwAl9OKxWLQDMxFPRaLAZ9XE2DabaZTyX+50iKbrbJ/WKBYbiAIIImaWjjgdxCLenA6TMiSSKnUpFJpcpQsaatKtYUk6gmHNd/oiZgHt8uKTqej3uiQzVXZ29d6SJKsOfy/TLThiyJfbFCvtdk/KFAqN5iIe/F5bQT8DqwXaLxxaUizu59j7VmK3f0c1Vqba1diWnpZ0HkhDS8VFafdzPSkj8m4j5lp/+nDPFTV03Hj51l9NNLEWZgL4nJZsFmNp4SJRdxMTfqYmfQhy9Joq9Zk7yDP9k6GB48SKEofu82E02FmetLPylJkZApioNdT2N3PcpAocP/hIaVSg1arSzjkYnUpwtJimMWFMAaDSL3RIZkssbae5P6jBPVGh4DfcRoNeN5oNrp0eoo2xp2pEAg48LitTMS9FzrReWmqZ92uluzV7SrodAIWiwG73YR0zpWd4VDrFT1eO0JRBljMBrweK36vnR9+f4HJuJet3Qxb2xl293McJUsoyuC5t25f1nc3yCIet5VbNybxeq3s7uXY3cuxtZNh/yDPs41jWq0esaibuZkAV1Zi2O0mFudDuF0WFuZCbO9lWVtP0lP6fPb5Ptl8nY8+3ebqaoxYxMX0lB+nw8LV1RiPnx7x4NHhqeGF32uD+dC3eyOfA2azNohnNEgMh+ppzLo2Vn5xuDSk6XQUqrX2iDRa3IXDbkY85+EkVVUpV5rcu79PudzEZjNxdSXK9atxFuZDXL8a59nWMRMxL7a7u4B2MG80tH/sfv9vt23CF/70RdoYDCIGg4jLZWF1OUIiWWJzK80HH23SbHYpl5uk0hWsT7V+SqutsLqsnXFiUTfv3J5h7VkSu83I46dJNrfSHBwWUIFf/WyV99+bZ2EuyPWrcVaXI4QCjlMBar3eeamS+svAYjbgdlkwyCJDdUSaWvsL9/C8cYlIo40Qd3uaQZ7ZJGO1GM59DECzghVOhYW5xwnW1lP8+eMt3r09w1s3J3E7rXzvnVmmJn28fWuatY0Ua+uaVW6p3PjbKpugpTfrdZqv8/No57xuK9JyBI/bws3rk6w9S/J0PcVRssTWTob6aHRidTnK0kJotJp4+N1vbnDj6gTHxxU++nSbtWcpnq4nSaZK2gjBfJCb1yaYnvLzf/zv3z81/ggGHKeN2/NUPptGpiZGk4ROEGiPdHiDM5wXXwUuDWl6vQH1Rod+f4Ak6TEZJcxfY336qiAIAkaDRMBnJ2E1kUyV2d3PsbOfYzhU0esFohE3Qb8mjAyHXDgcJkwGzUEmcVSkUmnS6WpjBCfoDzQh5/Ns407CnLweGzNTftwuC7IsoSgDCsU6zzaPSR2XqVZb1OttRFFHKODE57XjdllZnA8zVLVMmVRaUxSns5rxoCTqWV2J4vfZTwNlDbL+9Gc/T5xEJRpkEZ1eR6er0Gx2T2MXL2q25tIUAj5/dMDde3t0u32sVgPvvTvH6nIUne58g1jhpOTsIBh0EvQ7GAxV0hlNkft0Lcn+fp5svobJJBMOOvB5baNScgCv20an26OvDGi2ugyHKioq8ZimVvZ5baf9mW+CTiegF7W0ZJ/XxnCo0h4lWTeaXao1Tb28vnHMUapMu9PT5nfiHoIBBytLEWJRN3abkWqtRSJZ0s5K29pZaTAYEo24NKf/C/BWFgSB/mDInbt77B7kEdAiO27dmCQYcPxVqNX54rUnjapqJda79/e5c3eP4XCI3W7m3dua5ex53zN1lMEnj5xpPB4bRoOI0SjR7w8oFBuUyk1y+RqKMjjdSjgcZkJBJ2639dSz2WSUkGWRTlfBbJLpjlYerfKmZWaebAe/DMJoW2c2yRgNEsVSg0y2RiZbpVpr0273qNbaWljsyHOtPxgyGKinHmpOpxmn04JsEBEQaLW0KMNsroYggMdjQ5b02C+gWiUIAkpvwGef77G3n6ffH2KzGXn71jShoGP0whyT5gsYDFR6yoC7n+/z2T3tYO10mHnr1hQLc8FzvZYTAne6CqVSAxDwem0ju6OoljYwGFKptNg/yHOQKLC7n6NW7yDLevwj0/TJCR/RiJuAz4EgCORyNaq1NkdHRQqlBoViY2ROaEAeZVd+EzodhcNEQZPcHJdoNP5iSzscDk8H1I7TZXb3cgBYLPKpXdPcjDYmIMsijaZmp9vpKoh6PZaRh8BFQFH63L2/z85+VvNCsJl45/YMoaDzudLhXgVe+zONqqqnD+vJmUEU9egu4GadyDtqtTaPnmghTpIkEg27mIh7WV4MY7UamYh52d7NaM3ETEULvK22SB2XtciNkQuNw27C4TDh9VjZPyiQSpc5TlcolRq02z329nNMTfq0eEK//WvjK/626PaXP2j3D1qt3uhXl0ymSr8/IJ2tMDsd0KY/Aw4W5kJIoh6nw0ww4BgNr+kQLnDE+OQMabUY6StDQHghNfm3ideeNCc4mer7axn9RUCnE6hUmnz4yRaPnhxRKNR5/715fvsP15mZ8nFlJUbz/S6pdJn/+J+P+eMHmxwcFni6nuJ//tdTrqzE+PUvrmiNxaUI0yODw0/u7HDv/j5/+nCT9WfHbO1k8Y56M+99b4733plFDr/87H6z1aPdVvjTh5vcubvH7Iyf61dj/OC9Ba6sRLlxfYLFhTDZXJVqtUWr0zt3bd9fQxC0wofdqvlin6wu2i14BXHVz4FLQxqdbuT9axSxWowXZh4nCAIWq5HZ6QCZbI3j4zIbW2l0eoG56QATcS9TE168Hhtv3ZzCajWdOtAkkkWOUkX+/OGmNiG5m2VqQoveiEbcWuqzTWtK7h3kqdXaHCQKKP0BqVSJhfkQ05N+QkEHfp/9ha5fVVUGqsqgO0RRNFtdgGazx8FhgekpH+GQC6fDjNNhpttVcFzwtKROpwXw6gTQnRz+hS/vaZ0HLg1pgFF/xoDdZkS6QIMFl9PCO7dnKFeabO1keLapufzHo27iMQ//6z+9xc9/ssJ7787xzlszJFMlPvlsV0tpWztibz+PzabFVvz8x8vYbCbNIGQ+xO1b02SyVf713x/yyWc7rK2nePzkCFHU8dbNKX7+kxXefXvmhUnz1xgOVbK5Gtlcjc8fHBCLuPneOzP8+AeLfO/tWfz+s8WUvDp8RXn5gi7ttS8EDIcqg+GQ+w8Ouf/wUCOO2cDKKDD2IiAgIMsibpeV+bkg05M+gqMu+lGyRK5QZ3s7SyJZotnsaoboYS3dbG42SCSkOatkslXKlRa7ezkODgscHZcQ9TpcTgtOp4WpuJepSS9erw1VFU4N1PcPNIvaaq2NQdaqXiqjJLSDPMnjF0tCG6oqjUaXdKbCs5Ew9mQ7dFHJy4oy4OHjBLt7OZqtLhaLkXffnjmdoRoXAr4GqqoyHAzpdLQG10VKKSRJ641cuxLj+rU4W9sZnqwn+f1/rbG1k+HO3V0ePU6wvBjhndvT/PD7Cywvhpme8nGt0GDtWZIPP9nm4DDP7l6OZ5tpJie8TE/5kSURt9vK3EyA+ZkAV1aifP7wAAFh1MFPsbGVxmox8LOfLGM0SsSjHswWg+Yk8xJoNDpsNzrsHxYwGESSqTKW0Rj5xTlcCgwHmmp8ONAasqh/9esCVptLQxrQ7lF/MByZQ5x/BeWkilcut9jZz6ITBK3vYhC5eW0Cr9vKe+/O8vBRgs3tNKVKg//84zrrG8cszAe5uhIjFtFElR63letX4qxtpLj3YJ9qtc3aepJ6vc2HH2+xshxhZsrP1ISXW9cnCfodbO9m2dnNsrGV5tlmmk8+2yV1XObalTjxmIf9gzytdu+lXyjaaLnmh7Z3kB8VAs5fsAlaubzZ6lKttmh3Ffr9IcNRRfWi8NqT5iTmQqfXIYo6VJUzqYa/bagq1Bpt1p8d0+kouF0WYjE3sYgWTXH75hS+0eDW7l6Ww4TmBnNwWKBcbnHzWpzlxQihoJPF+TChkBODQeTZZpr9/Txb2xk2tzOnvmXDocrUpI/FhRCBgIOJuGYv2+70qVabPHpyRLPVJZEs0mh0vpUUNFVV6fe14KlGXRPJXhwE7TqamuZM+OtiwAXhtSfNyb7VZJIxjbrm/f7gzFZJ3wZOTDD6/SG5fI2tnQyNRodoxM38bJCb1ye4shLlysgGNpWunM68JI9L3H94wMFhgU/v7nJlJcZ7787i9dj4zS+vcfPaBOl0lY/ubLO5ldHcN/M1nm2mWZoPcf3ahCbhn/ThcVu5eX2Sx08TPH5yRLHc4LN7eyjKgHZbodX+dvI2zWaZcNiF0/F8sp5XAVXVzrSDwfA0hU6S9ej1F+fr/NqT5uRBNRklrFYDSnlw6uHV7w+0VegcKzw6nQ5Z0mO1GOh2+2zv5khnNBOMdrtHt9fH57URjboJhZzaCLLNxMMniVFqWpHd/SyFYgNV1TRnE3EPSwthlhcjiJIeh93M/mGBTLbCg4eHpNMVKtUWV6/EmJ3yEw65mJ8N4HKacdhNrG8cs75xTHnk1jJ4we2ZKGqSHLvdhMNuZnU5yuy0/8L6NCeEUZQB/f4Ao1HEYpZPHUMvCq999ewEm1sZNrfT1BvaMn3japzZ6YCmDjjvsqgKBoOWUHaiJM7mahwlSzxdT9Fq9ZAlEZvVSDjkIhxyEo94Th++43Tl1F73OF2mWGpit5uIhN34vDamp7RqnM1mpFBqkC/UyWRH7jSJIkNVxe+zY7EYiMc8o7kZD3q97tR8sPcCWzSrRYsiv3F9kp/9aInvvzvHwlxI06ZdQIm/3x/SbHb5wwcbbGylcTm1TJ+3bkwR8L98yf1F8dqvNCcwGLToPb2+SrfbpzmKmDBcgFG32WxgdjpAt9dHFHVs72Y5SpbI5DTvsf7IU3l+TsuK8fvszM74cTrNOBwWLBYjyZQmsTk4LJLN1bSDd6lJMODA4TBxZSVKwG9HkvRsbmfIF+rk8zUymQqdjkK32ycYcBAKOggFtXxPm9WIx2Vh/6DA8cgLrV5v0+l+uZGhIIDZZMBmM2pns6ibmSk/qytRlhcjBAN27COnzotAr6clHHQ62uppMmozVBedinZpVpqDhObrWyo36XSU0zl4s8Vw7m9BvV7AYBAJ+LTEgqkJL9Gwi15vQCZbpVBssL2bYXsnS+q4DAK4XRaCAQfzc0Fu35wiHvMiyyLVeotHj4/Y2E5z7/N9KtU26lAlFnNr0eorMeZmA3hcFpqtLnsHefYO8tx/eEDiqEi53MJq1Ugci7lZXoowO61V56q1Nu1Oj3an96WFE71eIBh0sLQY5kfvL/Krn6/yg/fmWVmO4vXaRsnNF6c7q43SEj7+dJvDRJFo1M30pI+VpQge98VJey4NaY5Hw1LZnCZ7n532E495cdjNGI3SuV7LSdydLItYzAYMsoTFYsBkknG7Leh0upFTZpdKtUW706PZ6NJsdUdlam3u3WKRsVgMWEZxhydx6ZVqi3qjQ73exmiUMJtlrFYDVqsRp13zK6s3tGGsUrlJq9WlXu/Q7SoYDFp4rsNhxjxSMZvNBiRRfxqVrqp/iTu/fnWCd2/PcG01xtxMgEDAeToRe9FqgHyhQSpV5t7Itmp60s/MKLvU5by44sSlIU2h2KBQrJNMafmVsYh20D7Z218kjEYJt9vK/GyQd2/PgCBQrbY0v7KR7mxrJ0sqXUbpD/B5bXjcFmanA8zPBbl5bRIE7c2aTJV4vJbk0eMEWzsZTCYDfp+dmekAq0sR3ro5hc1molptU65owa7rG8c8fHJIvdHFZNJk/NPTPi0MacKHzWZkqKpksjX6fW3Gx2I24PHY+M0vr/Krn60yNaVV5SRJ/1qkjQEkjorsHxZ4/OSIQqnB0oIWRz898py+KFwa0jQaHZrNLgeJPKlUWZucDGj+Xq9LiGkuX+cw8f+3d55NjlxXmn7gEkh471EoX9XVnqIZWkkzmp0ZzSpi98P+zInY3VjFSFpptORQomi62b68L3gPJIBMJMx+uAmQoyEpVvum6o3obkYworoahYN785z3PG+VW1+KfJp6vYvSVRkOxUC21xvQaPQ4O6tTLLVQVR2zxTzDUCWTfuIxH6GQm76qz+LP84UmZ7k6fVXH63HgMYKf0sYHh8UiQl77fWGzOT2rUSi2MJkE3jUcdpNKBFheiBIOebDbrYzHwjIzGo1FOGxPE0wAu1iMexkK5+Cwwt5Bia3tPO1On5vXs2ysJ0klAy/0g/KVKRptoKOqOts7hdmUOh4T+S1+/4t14Y7HYhi4s1vg1pfHfGmcEt2uNoMGTpsDuXyDew9OqVQ7jCcTvF6Z1ZU4qWSQ9dUEqWSAUMA168bt7hWN9eMqJrOJtOFhu3F9joVshLlMiF5X4+S0RqHYZGunyOZWnmKxhc/nFJmaqwnWVpO8diOL3QAaVmuKyLo5rXF8WhVbkW4HoZAbn/fFZ8AA7OwV2dkrsn9YQVV13npjiY31FNGw57lfyb+uV6ZoxhNh7xAJyCWcTgm/38mlteQLAdkB1OqKGFZ+tsevf/eAj/6wze07xxyf1Gi1+jMAxNc1/QQfjkS7Ol9osr1TpF5X0AcjHHYbkYjY8FxZjs+WwVrtPtWawsGh2AgtllpMJpBMBAiFPCwvxMjOhfD6ZPo9nXanT6UqTr6DowrNZg+3y4HDYSOdCpDNiHgNq81CV9FmV8ODwyqlcgtdH2GxmJFl6YWdOrfvHHHn7gm5fIPJBH76wSWuXk7jeQG8u6/rlSkas7E1ef/BKVvbBQBcLjvXr84RjXi/tpj07DUcjlG6KodHFe7cP+HDj7f5ze8ecP/hGYfHVVrtPsNvKJivq98fUK6I02Rrp8BgMAITuF1iZWBpIWrkxYjnkWazR6HYZHuvSKEoOnSybCOdDBKPellZjs2e7zoGAP00V+f4pMrxSQ3NyN70ehxk58LMZ8OsLMfQVJ1Gq0uj2eX0rMbefpl6vYvZbGxMuu2YTebn2tafxjP+4ZNdPr91SLPVw+m087OfXObKRlrQaV5gk+KVKZopmWR3r8TBYQVN07FYzVy9nCEScj/XIWe11uHzW0d8/MkOn/xpj53dItV6RyShndMTJ6beE3q9gQiiLTTIFRpYrQLc4fU4SMT9LC/GCIc8WCwmVE0nV2hSKrXY3S/TbPUwm024XXYyKeEwmMuEsNutTCbMYB9HJ1VK5Ta1uoLsEBgqn8/JXDpEJhXE6ZRotntUqx1K5fYsC9RiMRN8ji3egT5C6Wr8v3/f4tMv9rFZLSTiAd5/Z4XFhegLtdDAK1Y0k/F4tnffaPbQQyIcrwAAIABJREFUh2OuXk4RiXhF+NDzSkIrtfjo4y0++XSfL+8eUyq3GQwez0QqPlXH9PoD6o0uhUKTQrGJzWrFahGFE4/6WF2OE/A7sVjN6PqIerNLqSz8b31VZzKZ4JBsRCNeFuYjs50ds9mE0hvQbPbYPyxTrQmHgV0Sw+JAwMVcJkw87sPltNNXdRqtHsVSi4E+QrbbRGFlQs/glfxmdbsatbrC7z/c5PadIxLxACtLMd58fZF0KvjCmxSvTNEAjMbimtJRVCq1Dpqms76aIBL24Pc5n9uQs1LtcOfeCUfHVao1ZZaE/DiyWEQIbCoRIJMOzpwBx6e1GfRP1YZ43A6CBvx7dTnGlctpnA5pdrXa3imwtVPg8Lg6s/DMpUOsLse5spEmEvHMIsZPTmvsHZS5feeItgETDAXdLC5E2VhPMj8XwuGw4XE7sBmMt+e58Fevdzk7q/PZFwccndS4eiXDzetzbKy92KHmVK+MjQbAYjYTCrmZy4S4//BMfDKXWpTKLTLp4HPbLpQdNlJJ8SZvd1Qq1TaKoj3WjscUeJdKBlhdiVOtdqjWFM5ydfb2S3QUlV5P2GZWlmLEYz7msxEW5qNYLGZGkzFnZw3OcnWOjkWqmV2y0m73mZ+PEPC7uHYljSzbjOtt0Sj2DmdndSaI61BH0VhejBKNeLEZSWOtdh+L2fzcmWftdp/D4yrtjorZBNGwh+xcCKfrxcehwyt20oA4bVRVZ3uvyMlJTUzlZYnlpfhzy6mxSVaScT8ul33GFGs2Hi/Uaar3313jZz+9zJs/WuDG9TnDrDgQWTFHFR5s5igWWwz0IW4j1jwW9XJpLUl2LkQo4KbdUcXK83GV7d0iJ6c1VFUXjLWYj421pBh8LkRR+wPKtY6IY98v8Wg7Tz7fFCnRITcL2QhrK3GWl6Ik437s9ufX4t3cLvDhx1vsHZbodFQ+eG+N119bIBx6sa3mqV6poplCSHR9yP5BhbN8A00b4nBIXFpP4vPKz2Vv3GIxG/YZcQ3y+5yEgm4cDonhaGQscZ3Hnm/izR8tcPN6lkw6SCLuR7JZ8XllUZgTaLR6KF2VVqtHsy3cAKPRmIDfidcjEw57cLsdeNwOLGYzfVWnVG7TaHZRuprxUG/G65HJZkI4nXYCfhdOWWIwGApDaLVNrzego2j0+ho2q2X2Rn0er+t4PEEfjrh954hf//YBSlfD6ZT46QeXuHE9i9vpeO7m3G/SK1Y0gns2NtKKT8/qVGsdrDYLN67OEQy4Zw+/z0pf0fNFeziVDMwIlePxhEaji6YNv3c8hcn47drlDMuLMfxGdmY85mNhPkwyGcBht9HtqVSrCofHFfYPKjx4lEMfjvAHXPi8MgvzIrR2ZTmOy2VHH444OKhwcFjh4WaOXK5Orz8gEvGwcSnJXCbElY3UzMNVqXQ4Patzelbn8LjC8UmV8QRSCT+SZH0ucX26LnalPv18n1/+6i6ybCcR9/PBe+tcXk9ifUksPq9U0YDAOA2HYyrVDtVah3K5jckkSP1ulwO/3/lMF5QmE6jXFe49OOPopEqr08dut5GM+3B7REJyOOTGbXziq5pu5Gp++9XNZDJx7docK8sxgkEXXo8Du92GUxaGTp9XJhz24vfKs4l+Li+W3uoNhVpNod/XcTgkwiE3LredcNBNMOjC43HQ6+v0+wMq1Q7NVn/WGXPKdlwuO9Gol3jURyDgwmw2ie5Vo4sJcLsdYuD6HMAajWaX/YMyn9065PNbh8xnI2ysJ3ntepa5TOilKBh4BYsGxHCxo6gCpndaZTAY4vM5Zx0ju/3Z9DemQ7fTXIN//c09Hm3mKFc6+DwOlhajpNNBLq+nCIc8yLINpatRqymMhuPvzFSZZm6urSQI+l24DV/VdCIfjfpYWzYcyE47iqJycFihUm2zs1skn2/SaHTxehwkE8K/Nj8XYWM9RSjkod3qUW902dktsrdfmqGwPG6xdLaxnhJBt+kgw9GYeqNLsdhC18dIksjxfB7ds1yhyR0j72d3v8jVS2luXMuyuhJ7gTSc/6xXsmgALGYTuj4UFpRGl6E+wuWys7aSQHZKzySGYfr1mq0ue/tlzvIim+bkrM7efpluV0V2CIJ/LOojmQiQNSI0bDYLg8Fwlgzw1dcUK9Q3r2fZWEsS9Lv+gxnRbDZhMQvjpV2y4TGeXxbmBcXTZDahaUOK5RaVinCB1+oKmvFB4vU4CIfcZNIiFc1qFTHoal/nLCcGqZVqR1w33WIZLR71kUj4mc9GiEe9ZIxEtWelsbHS/Ggrz29+e5/9wzLNVp8fv7/Oj99bI5nwv3An+9f1SrWcp5IkC+lUkE5HJRrxcZprsLtfIh7z0Wz18PlknPKzeZGn9pJIyM3W9pi9/RJ37p0wmcA//v1VhsMRy0txVpZibFxK0Wz2+OL2IR9/ssNkAqOROBmHBtB9Clc1gbHr8k0blqJYg0EXwaCL1ZUY6o8v8enn+3z8yS537p3waDPH8XGVTz7b48a1OV67MY9dspJJB/nJB5fo93VqNYVf//YemqZTKDR5uJXDc9vB0kKUn/30Mm+/ucTqcoK1lQSVmkLbiD38vnk5j6vhUAx3c/kGn98+pNvV8HgczGfDXN5IvZBV6+/SK3nSTOn9fXVAqdJGVXXqzS4up0QmFUSWxSLWs2oImAzKp3hg92OzWegZa7lnuQb5fJNKrYPJZBLxdw4bkZCHdCpAOOwBkyDf9/pfbVTOZUIEAi4iYQ+Bv/QmNYmZlWQT3a1UMkAyHhDPI70Bvf5gtntUqrQN9JGJoF8848zPhYnH/QSDLlRVdM7qjS65fJNyRaxe+3xOggEXAb+TUMD9TCPRW+0+h0cVvrx7zK0vj/F5naytJHj7rWXWluMvjKT5bXoliwZE4YzHEwb6EFUbcnhUmdnbp12tZ/ViWyxm4+HcQzoZwGQCxYgq390XK86FYgu7Q6BrPW4HqVSAlaU44ZAbfSjMmZom8kNHwzFer4zVYhGnpNPOZDyBb2F8mU3CD+b3u5hLB8nOhUkkAnQUsXpQKDQ4Pq2xs1eiUulgMQDiwaCbeMwnnOFG4lqjJYyghWJLcA5KLcaTCeGQm2BQ/PrOiI8n1GQyoVhqcevLI+7dP2N7t0h2Lsx7b69y7XKGVDLwUhUMvMJFA+JKI0k2NE3n0XaeRrNHo9XD7bJzaS2BJFmf+g97urQ1RSZJdiuJRICb1wTlMhLxonRVjo6rnJzW2N4pcJZvMhgM8Xtl4jE/c+kQSwtRlhdjwiTZ6tHvDTjN1Tk5q7F/WGY4HGG1WpAdAln0ra+ByYTZYgLDmFmtd6jXu3R74hTrqwOKpRZHJzV294TDYJplmU6FWF6McWk9OYsfrFY7HBxVeLiZp1Rui1gTixn/M0gOmEwm6PqInd0Sv/zVXbZ2CjSbPW5ez/KLf7pBJh3E7X4+A+vz6OW6LJ5TkmQlEfORnQuRTATodFTBRz4sky80MVtMBANPz6s0DZhSFI3d/SIDfUQ45CadDLK0FMPjlYnHfUwM13K1auCXym26XQ2z2czKUpRkwi9yOLNh3G47A03nNNegXGlz9/4ph8dVhsMRvb4IYkrEfbhcYpj6Te10yWYVrWmfjN8nWu4CoSu8es1mj7N8g72DEp2uymAwYnlRLLCtrcbJZsMietxuZTKecHhU4e69E4bDkbFuIK50T1vaYCi+t1ydrd0CjWbPaFoEWVmOvTDo+l/SK33STG3rgiw5YDAYki8KK4hDlvB6ZOIx31P7+6bPUqVymz9+us+t20f88dM98oUmiqLh88lcvpQ2TJIpnE6Jbk+jVu+yf1Bia7tALt/EbDZjl2wk4j6SCb+gv4TcuFx2mkZiWr7QZP+wQr7QoNsbIMs2HA4J27esQKiqztFJjYPDCme5OsqfpQaMx4LPXKl22N4pki+KRGeHw0Yo6CYYcDM/F55BK7rdARaLGUmyEAl7WF6MPbXXcap6o8udeyd88eURd++f4vc5eeNHi7zxowWuXM5gtb54uMc36ZUuGmD2okqSFVXVOTiqMBiIiXwo6CadCs6eAZ6GTCYTSlejUGiQKzTZPxD7LM1WT1DtMeFy2YlFfTgcNlxOO7JsQx+OqNUVGo0uvf6AjtJHG4yw2czMZcI4ZYlAwIUkWZEkK/pAUGlqNUWEzHY1er2B0bKeIDv+Y1td1XSOjirfUTTCotJRVCrVDoqi0mj00AZDBtqQyQS8Xplk3I/f7/wqwTrmYy4TJp0MGv/+J38Nx+MJqjbk+KTG7z/a5MGjM0rlFkuLMf7h766wvpYgEfe/lAUDP4CiAbBZzfh8TvqqzvZukUazy1muTjzqYyEbQbJZn6rRb5rXMtBHVOsK9YbCWa7B0YmICRyOxng9MolEgMsbKdZWBDCw1xtQLrfZOyixd1Bmd7/IcDgmFvXh9cozM+XaShyLxcRgMKRQanJ0UmV3r0yp3KLX03DYJeIx/yxSEYyiORarzd9UNH+ugT6i2ezOiC8dRZ2tCCQTARYXoqyvJmbJaLLD9tS2Y3V9RLvd59FWnl/+6x32DytYLBZuXM/yi5/fJJl4vgbR8+oHUTQWixnZIYyH7XYfpatxfFzD7bZjtZrxeGQiYe9TW4c2G0Uj2YVh0+N2INkss7g/TRui9DR6PWF69PlchIJu3C4HLpck7DXqgNOzOorBLOt2BwxHY4JBF8mEH1m2C2aZMW9qNnu0O30arR4tY8LfUVSxBm4WLezjk5pId8795VCn4XDMYDCi3enTaou4dEXRaLX7DAZDZIdEwO8iHPbglO2zgnkanayWUTB/+myfz28fAiaubKR46/VF3npjCZfL/tJ1zL6uH0TRTDX1SvV6Gg83c/RVnXK5QzYbZmUpBjydT0qzWRA243Ef1y5nyM6FSMT9tDsqB4cCiL65lefgsEK11iHgd7K4KBa8Lq0lSacCjEYTNncKnJ7W+fz24WwyH4t4yc6FSaeCrCzHWVmO43HLdJQ+5Uqbw6MK2zsFPv/iEFXT8XgcyA4bsixxciqK5jRXp9P5y0lo0zfmYDCcmUEfbuYollowEWznWNSL1fZVmvaTvpknkwnlcpvf/b9HfPSHHfLFJpl0kH/+x+vcuJYlmfBjMZufG+/hcfSDKhoQzza9/oBaQ2GgD6nWFEIBQbSUJMsT2zHG4zGNZo97D04FFrbZw2QyEY148Hll0sngzPjY7+vUG13anT71epdmqw9AJOzF73cSjXiIhD1INguDwYhypU2z1aNQbNFVNMYTMb/xeh0E/C5CITcBv0u0hmsdRqMxLWNNoFrtsHcgmNK5fINu7/vHbUwmBoZqJOws2mCIomhog+GsWHzeJ2c6a8ZzzJd3j/n0iwPOcjVjSS7DB++uMZcJ4vHIL+2zzFQ/qKKRJCt+n1NsIw6GlCtttrYLmM0CRhGP+Z+4mzYeTzg6qfK/f3mHu/dPKZZahEJurl+bEz/899Zwuxzo+ohCscnDzRyPtvJGhmUHt9vB668tcGUjzbt/s0IyIRwFxydVbt855t6DU25/eYQ2GGKXbLOO1tXLaZYWIsSjPnrqgN39EsVSiwcPTznLN8RQs9Si2epSqXZQHyOIaTo3aRg8gWazx4QJbqedhfnIE71uAEpXncW+f3nvmF5/wLUrad56Y4l3314lEva81NeyqX5QRTOVxSyGcYqiUql00PUR1Zp4w7qcdmw2K47HfNA0maDVErYPsZJc5vC4ysNHOdoGe1mSrKSTQRbmwyxkI7icdvThmE6nT77Q4NFmnqPjKv2+aOvOZ8Nks2GubKTwemSRttYRu/z7xnVvOBxjs1oIBF2kEgGubKRJJgLY7VZ0fUyh2KLeEN05pat+p6v6+yoS9pDNhMkY4PEnUb7Q5NFWjo/+sMPtO0cMtBEL2TA//4cb3LyeJRrxvNDMmfPoB1k0TlkiEfdTqSoUCg3K1Q4nJzUDDC7j9TiMCInz39FNJhOKopHPNzg+qbK5U2DvoMzDzRySzUooKB76lxajYoks4Wegj6jXFarVDvuHZe7cP6HeUHA4JIJ+F1c20iwuRLm0lkTThrQNEuf+QYn9gzLttipa0rPltAg3r2WRHbavQBwnVfEw39WeCPQx/TdarZbZ35XNCE7a42hspJjtGisJn3y6x+5+GZ9X5sa1LL/45xusLMVeeHzGefSDLJqvF0I47J0tXildjUazh12yzibs32VR+TZZLRZ8ftGRSyb82KwWWm3BXd7ZK3J4XKFUamG1WohEvMQMgPnyUkwMDhURvJQvinbyzl6RwWCI02knGHCxshRjcT5CIu5HU3XqDYWT0zoHxxUOjTlUMChmOulUkMXFCCtLcbweB8PRCE0dPnbupskEwYCb5cUYb76+xAfvrjGfDT82+rfeEBTR3/zuAb/9/UMKxRZej4MP3l3jJ++vs7QQNbpzj/XlX4heaRvNd8lkMpFJh/D5nBwdVzk2UK4dRSXgd+L3i+aA3WHDYj4ffM7ttnNpLUkw4CaVDMwGq4Vik1t3apycil+TiejmRaMCM7u2EicUdNNVVI5PRYBtsdTi4WYOVdMxm01k58KkkkGymRBzmTCaOuT+ozNOTmvkCg22dwr0+zo+r+ASLMxHyM6F2FhPzhoQFrOZcrVDvz9A10d/8apmMhkoKWNbdLoxefN6lo1LqccClozHIgm7WGqys1fk9p0j7t0/xe93srIU47UbWa5dSeN2O16pgoEf6Ekzldlswi5ZsUtWImEP1brC2VmdeqNLvz8gGHTj97mw2syP5RiwWs24XWKP/erlNIm4n4DPSa+ncXRS4+SkxtZOgUKxxWg0JhxyM5cOsbISZ2kxRtSIwDs+qVGtddjaLXKWq1OpdvD7neIUWYiwshQjnQ4wnsDZWY2TXJ0Hj844y9dRuioOWSKVDBAOeZifE89H4ZAbTRMnzmDwzUloU0mSlXDIw8Z6ir/76QZ//7eXeeuNJdaW4wQDIjrwvB2truH6/rcPN/mX//kFewdlTCYT7/7NCv/4s6tcu5IhHvcj2V5A/OMT6gddNBaLWZgZnQ6CATeVSptSRbAFOoqKbDy02yUrNpsFq/V8qwRWq3ALR8IesnNhvG4HHredyQT6fZ1Gs0eu0JgFO1ktFlwuB8m4n0jIQyQs4gGHwzE9VadYbFJrdKnVFJFkLFkJhdxEoz7BI7OaGegjul2Vk7M67Y5Ks9VjZDQJnLJELOYjFvUSDLixWC3Isg2rxYzFYkHXR4bpVKSgSZJVEDmzYTbWk7z5+hLvvbPKjWtZ5rMRggHXuXG/uj5C04YcHld48PCM33+4yUd/2EaWJVaWY/ztjzd4750V4nEfbpfjlSsY+IEXzVQWiwWH3cpoMmGCcP6WK4L5pWk6brcATDzpD9Eu2QiFRAEtzkewSzYBqaiJdIHdgxLlShub1YosSyLZOR3i6pUMTlkSM6CGoGseGbR/TRsiywJOuJCNcGUjTTDoRtdFHuXefpnDowr7B2UGgyEul51QUMSQLMyFSaWCs6ZHra4YoU4THA4bPq+TN360wE/eX+f9d1Z547UF0skgHrcd2zk/QKbqdjWqNYU/frbH//nVXTa3C7RafV5/bZ6f/niDm9fnmM+GcTiEM+JV1F9J0ZhnO/YOh43BQGTFVKqdGeHfZBIAcbPZ/NhgDrvditcjEwq6iUS8OBwSdrsVyWZFM9hijWaPXl+j19UYjyfIssTifATJbsPrlbEZV6F6U8xbul2Nfl8XMRwOG/GYD7fLjtcjI8uSEc6kUig2UbUhvb6Gpg0xmSAS8RL0u/D7ZCPg1Yrf78LndbK6HOfypRTv/s0yb76+yNpqQnjMZAmr9fyopMFgSKvVY2evxOe3D/n4jzt8dusQyWZhYT7Cj99f5713VslmQgT8rle2YOCvpGhAPN+4XMLP5fM7MZvNFEpNjg2ucb83IGDslDwpL3haeLGYAJevGbzpabPg0VaeR1t5Hj7KoaoDYlEvsaiXy5dSXFpPsroSR9eHNFtdjo6FCfTWnSOqdQXZIRGP+Xjt5gKX1pJcuZzGhIlSSWxe3r1/yvZegXK5jdcj4/c7yWbCzGXCrK0kyGbCJOJ+fvL+Oj/9YJ0rGxmSyQBOWXqiU7ajqOwdlPj9R5v8y//6goePciiKyus35/mv/3SDt99cZn01gcspvdDw26ehv5qiga9OHMlmnZEaB4MhjUaPwWDIYCAenKf/73EtN1PCjN2A7LmcErIsCY6ZU0R6j0ZjShWRNqB0VREiOxob5lIPNps4tabo20azh6bp9PoiAFeE0lqJR73YrBZcbgdO4/tttnq0WiLZWdfHBAIunLKdQMCJ220n4HeykI0Qj/vwegRL7XELRtV0CsUWWzt5Pvlsj89vH7KzW8LjcbCxluTdd1Z56/VF0skAPp9zVjCTyQRtMKTRFOsPxXKbWk1snfb6GqPRBJPZ9FIOPP+qigbEjMXrFVeoVFLAKHL5BidndXZ2i7Q6KhMmuFz22Q7Jk2iaChAJeVhbTbC8ECUW8TIaTdjZL3FyWuPz24cUSy0azS6JuJ+lhQiL81FBwkyHsNmslCttTs5qPNzMsbdfZu+wLNa615NkMkGuXc4wZ+Bmj09q7B+UePAoR6vVM4rDQSzqIxhwk4j5CPhd2O02LBbLE7V8W+0+t+4c8e9/3OGXv7rH5nYBVdV5/eYC/+0Xr/HOW8tcWkvicjlmV77JZMJ4Ik6nQyPifWevyPFJjbNcnW5Pw2Ix45BszxTo8bj6qysacQqYsFjNyA4xlwj6xaCw0eyiD0biWcdIZx6NxrjdokHwuJ/G0wh1m9WCZBOm0WBAQDFiUREPqGlDTnMCbCG4Xz1GowkBv4tY1MtcWjipAwE3o+GI01ydVqtnZGbWaLdVHA6bAQv0s7QYJZsJceVy2kiL88wAGRYj7vxx92M0bUiz2eWLL4/4wye7/OGTXR5t5ajXFbKZMD9+f52fvL/GazfmZ6B4k0HgEejeHnfvn/DJZ3vcuXdqpB0otNp9Wu0+pXKb3b0S7XafvqojSRacL9Hq819d0UxltVpmnab5bJjJZMLBYZlqXWFnt2gAwTv4fTKZdFCELD0F+LYkWQkEXGQzIW5cmyMYdDGZTDg6qXH33gmPNvM8eHjGQBcP/qvLcTbWk1y9nCaVDOB2O6hUO3x595jDowq37xyTLzRRVZ25TIib17Ncu5LhyuU02YzIp1mYjwgw+lPYXp1MJrMU6V//9gG//beHfHH70KDv2PibN5f5H//9Dd780QKZdPA/vdmHwwmFYpN/+3CT33+0yeZWnnKlzXAo0heUrsbRcZUv756gaUOGRoT8BWHzJZLZuDe7nHbS6SB+n3MG8qtUO9RqwsLSNUyQDrvtqWBvp7wBm03MYrKZMJfWErhcDiaTCR1F5fSsbhg2m+jDkTGEdJNM+NlYTxI0cFDTNWavR549BzllaRbMJE6YJ7uGARRLLTa383z48Rb/+pv73Ll7TKWm4PXKXFpL8PP/cp0P3l1leTGK3+fE9mfA8l5vwL2HJ3z6xQHHpzU0TcfnlfF4ZGw2CzarBYdsw+9zkU6HULoap6c1XC47sizNZlcvWhdFYzywh4JuVpbiyA4JVdVRNZ28wQHYOygzGU8wmcDusImH08n02vW4VzZRsG63GHYuzEdYXYnBBFRtSK2ucHImOnu1moLFYsbtchAOeZjLBLl2bQ6r1WIARUb0+zqxqJdo1Es0LHZ7XE5RPIL/dv7vcTwWqwK93oBmq8fWToEvbh/x+482+fDft2h1+jhlidWVBG+9vsTP/+E6Vy6l8BvX3a8XzGgkmhmffLbH7TvHjEcTPC47Xq8sBrA2CzarGDL7/U4yySCFouhuut0O7JKVYMCFx/N8A6a+SX/1RTPV9E0s2a0zgr7b7WA4HFGtdlC6KoVSi3xesJKtVrPhJnj8ztOf//1WqwW3WyaTCpJJh4jFfKiqTqvdp1BozoaY2mBIOOTGKdtZyIa5tJbk+tUMr91YYDEbxudzPpXI8F5vQLWucPf+Kb/53QP+9Nket748Ip9vAvDajXneeWuF999d5cbVDKlEAKdT+sZrYEdRKZaaPHyUo9Xqc/1qhuxcmGpdwWQ2kU4EsFotBpd7jD4Y4fY4yKRCjEdjFEUTXLmX4Jr24s+6l0QmkwmLxUQqESCVCBCLidmJ0ykxHI1pNnvUHp1xeFRh76CMoqhcWkvMrnSyLD22axpEwVitFi6tJVheilKrKRwcVbDZLNx/cEa+2OAs38Au5RhPxqwsCe/alY00+nAorDSS9YnCeqfE0r7BWyuVW5yc1vjiyyM++sOOMWgd4PfJXFpP8t7bK9y8nmV1Of4XXdCCgqPQ7Q2w262sLAtX9qPtPP3eAJNJAO1brR5jj2wsvoUJhTx8fuuQ47MaSldDWOgmL3RZ7aJovkXRiFcMEuN+Xrsxzxe3D9neKXB0UuPBozOKpSaZdGjmCF5diZFOBohFn5yzZrVY8PucrK8mCAfdvH5zni0jiPbouDoDYvh9ztkJZTE/OSNMVUWGzf5Bma2dAtu7RXb3S9TqCrW6QiLmZ301zs3rWV67Pk8mEyQc8nyveVanI9ayBU5XxKJMP2CKxSb7+yXj+WxMLObjR6/NE416kWWJrZ08rbZIfhuORi+cIXBRNN8i8TwgApViETFA9HkFZ/k0J5zSvb5OudKh2exSrXXIzoVIJQJ4PDIet118Daf93Ln3JhM4HMLyEwy48Pud+H1OvF6ZgN9Jdi40G5KCoONgOd+7aDQaMxyOUboq3a6G0lWp1hSKxRY7ewW2doqzpDmX025gdKNsrKe4cW1OpEsbD+ffV+Px11YUTNMrqZnJBLo9TawxjAXQY3kphtVqQdeHvGyWzoui+QuSJCvhsId3315hYz3JGz9aYGe3yJ8+PzBWnmsUig0+u3VAMODG53NyZSPF5fUky0sxspnQbAX6cRXwu7h8KcV8NkxCObW5AAAFoklEQVT//XVkgx76JNuOqjak21XZ3SuxvVtge7fAwWGFeqNLq92n1xvgdErMpUNcu5rh7TeXSSb8s7a38Ol9/7ez7JBwux3CaKpoKIqKzeqa2YJiUS+1uuDVeT0yc+kg+WKTckX470bDsYA+vgSkmoui+Q5Nl7MsFjP2oBuvR8bjceDzOWcc6bO8QC81mz3yRren39NoNLqc5uqkUwF8Xic+rywYBS5xAkk2CzbJisVA637XSWSzWbDZ5HNFk0+XwPThyLDriwjBjqLRUfo0Gj0aTeFtOzqucHhcpVbrYDZCeJNxUSDZOdFouHFtbsaKfhy53GImZrVaULqina6qOna7jXQqSCjoplrrIMs23C471ZrC4VGVw+OK4MEFXE9k93mauiiac8hqFXEVHo/M4nyURkM4ke89OOXug1MebebY3S/x4NEZu/slbDYLHreDaMTDXCbEwnyE+WyETCqA3+fC63XgcEjIDhtm89NLbpsiaDVNnwEAK9U2BaN9LgDxoti1wRB9IBbVvF6Zhbkw1y6nuXolw0I2PHM+P6mhM+BzohkO7U5H5d6DU6IR0WhZWohwaT1Js9ElmfDDBD79fJ+Hm3mOT6pk0kHm5yOzWMUXrYuiOYdMJhM2q2W28DXlL8sGyGN9NUHOaEnXagqNpqBgnuYas6vH5naBYMBl7O+IoZ3b7cDpkLDbbdgly4znLE6Yb9+a1PURuj4Up8lgxEAfoQ10ul1NJA4Yf3a7mrGw1qVc6VCptBlPRMMhlvIRDLjw+Z0kYj7SqSAL8xERQBXy4HE/nUUxq1V4/tZWEyiKRqnc5uCwTCLux+N20Omo6KMxTtlOrtDg5LROu93HYjWzMB/hxrW5x+YUPG1dFM0TyG4ACD3uJGsrcbo9sfuytSM4Z7v7Jfb2ShSKTU6qNU7OaiIq0GzCarFgsZhxuSRhIA14jIxMO24Ddet0SricDmw2EZ3x5ydRr6eJ5LOeoNAoXZVWS5wqrVafTqePNhgyGgvP12QslvAA0skg6WSA9TXxvS8uREingrhcdhx228yf9jSvQw67jcvrKSbjCb/6v/c5y9UB8dzocTswmU2oqk6p3ObBwzNjmc7H+mqCq5fTL43j2TT5ruXxC51LQyPFuVxtUzHWqiuVDvWGQr3RRemKq1Kr1RPp1J2+cVqIACfBpBaFaLfbsNksSLZvD6aarjIM9OEsBFecOCIM12I2iaaBV8brFXGAHrfYUI2EPQQDbqIRL5GIx5i2O7AZ38ez0Hg8od8X858Hj3IcHldotwV1VJYlJhMYDsVVUdV0lhaizM+FubSeJJUMPJPv6XF0UTTPWKPR2Jjq96jWFfKFJqenNQrF1gyiUaqI0CdV1RlPxInA9EyYiP/685+SyWQSrVgTmMRvmExgmwY8eZyEgi5iUR/ptDhV5rNhYhEvoZALWba/MB/XaDxGU4ecnNX4/NaBaOHXe4xGI0xAOh1kdSXBxnryiSGFz0IXRfOMJT49h2jakL6q01FUOh0VRVHpKOrsatXvD8QvVUfTdIbGHGX6yTvQh4xH4npltYoTSJK+OolsNgt2Y9XB6bSLbBxZwuUSsA+PR5750WTZhsVqxmp5MdedyURwo9ttwaNrd1TxgTEaYzKBxysTDLgIh4SH7mXTRdG8YI2N5wzNKJZ2R6Xb0xjooxnZRe0P6KkDhvqICSIuUJZF183pFDv9Dodo1U7NjeelyFzo++uiaF4CTfMxx2MxVxnqI8bjCePJhPFownAkCDITg6ZjNrCxFrMJi1EcFovZ8K+ZxQDQbHrpJuk/FF0UzYUudE692liQC13oBeiiaC50oXPqomgudKFz6qJoLnShc+qiaC50oXPqomgudKFz6qJoLnShc+qiaC50oXPqomgudKFz6qJoLnShc+qiaC50oXPqomgudKFz6v8D5gMGg0XWNBYAAAAASUVORK5CYII=;" vertex="1" parent="1">
          <mxGeometry x="530" y="816.97" width="65" height="64.05" as="geometry" />
        </mxCell>
      </root>
    </mxGraphModel>
  </diagram>
</mxfile>
